####
#
# OBJ File Generated by Meshlab
#
####
# Object col_LeftLittle1.obj
#
# Vertices: 25
# Faces: 46
#
####
vn -4.343643 1.158984 -2.962883
v -0.004775 -0.003560 -0.004410
vn -5.696483 -0.301491 -0.460282
v -0.006765 -0.011337 -0.000209
vn -2.874273 -0.712615 -4.253235
v -0.003696 -0.018322 -0.005663
vn -5.716846 0.550710 1.067440
v -0.006508 -0.008052 0.001433
vn 6.079003 0.447885 0.231881
v 0.006477 -0.005400 0.000542
vn 5.482052 0.740739 -2.177982
v 0.006067 -0.005415 -0.002487
vn 0.988431 -3.360658 1.868749
v 0.001788 -0.026927 0.002510
vn -1.900150 -2.251063 -1.912439
v -0.003371 -0.025805 -0.004114
vn 1.808593 2.756053 -2.962272
v 0.001767 0.001768 -0.005302
vn 1.420661 -0.485050 -5.734857
v 0.002100 -0.016400 -0.006151
vn -4.131962 -0.834575 3.579237
v -0.004621 -0.016493 0.004803
vn -2.870708 2.122055 1.593717
v -0.004134 0.002275 0.005091
vn 1.228420 -3.346728 -2.633598
v 0.002714 -0.026006 -0.004000
vn -1.093495 2.630365 -2.368274
v -0.001262 0.002466 -0.005337
vn -1.118749 0.261248 -5.768839
v -0.001507 -0.007195 -0.006526
vn 5.341985 -1.209508 0.032458
v 0.006727 -0.020829 -0.000468
vn 2.948697 -1.567865 3.377595
v 0.004978 -0.021379 0.004493
vn -2.417070 -2.572515 1.924510
v -0.003416 -0.025657 0.002582
vn 2.987815 1.264994 -3.872277
v 0.003608 -0.001723 -0.005593
vn 3.054360 -1.942844 -2.318440
v 0.005123 -0.024100 -0.004000
vn 1.115238 -0.749333 5.801266
v 0.001500 -0.016400 0.006325
vn -1.234833 -0.925974 5.708985
v -0.001500 -0.016400 0.006325
vn 1.410568 2.406999 2.027924
v 0.002850 0.003153 0.005865
vn 4.061567 1.816706 1.241996
v 0.005648 0.000568 0.003663
vn -0.780403 2.578050 2.552554
v -0.001644 0.003141 0.006263
# 25 vertices, 0 vertices normals

f 2//2 3//3 8//8
f 19//19 20//20 10//10
f 6//6 24//24 5//5
f 24//24 16//16 5//5
f 16//16 6//6 5//5
f 13//13 10//10 20//20
f 13//13 8//8 10//10
f 20//20 7//7 13//13
f 8//8 13//13 7//7
f 1//1 12//12 14//14
f 19//19 24//24 6//6
f 19//19 9//9 24//24
f 14//14 23//23 9//9
f 21//21 7//7 17//17
f 21//21 22//22 7//7
f 3//3 15//15 10//10
f 10//10 8//8 3//3
f 19//19 14//14 9//9
f 1//1 2//2 4//4
f 4//4 12//12 1//1
f 2//2 1//1 3//3
f 12//12 4//4 11//11
f 2//2 11//11 4//4
f 2//2 18//18 11//11
f 25//25 23//23 14//14
f 24//24 9//9 23//23
f 16//16 20//20 6//6
f 7//7 22//22 18//18
f 7//7 18//18 8//8
f 18//18 22//22 11//11
f 11//11 22//22 25//25
f 10//10 15//15 19//19
f 12//12 25//25 14//14
f 23//23 17//17 24//24
f 15//15 14//14 19//19
f 1//1 14//14 15//15
f 1//1 15//15 3//3
f 16//16 24//24 17//17
f 16//16 17//17 7//7
f 7//7 20//20 16//16
f 11//11 25//25 12//12
f 23//23 25//25 21//21
f 21//21 17//17 23//23
f 18//18 2//2 8//8
f 20//20 19//19 6//6
f 25//25 22//22 21//21
# 46 faces, 0 coords texture

# End of File
