####
#
# OBJ File Generated by Meshlab
#
####
# Object col_RightHandPalm.obj
#
# Vertices: 71
# Faces: 138
#
####
vn -3.750915 1.299525 4.548831
v -0.064454 0.026664 0.013904
vn -6.244976 0.598316 0.145269
v -0.068337 0.010614 -0.002922
vn -5.023092 0.208959 -2.348884
v -0.068848 0.004519 -0.003757
vn -6.274398 -0.000287 -0.041564
v -0.069171 -0.008919 -0.002348
vn -6.260569 0.138211 -0.192948
v -0.069105 -0.002397 -0.002380
vn -1.658137 -1.857357 -1.111388
v -0.067723 -0.035019 -0.003976
vn 0.742621 6.068887 0.993386
v -0.040347 0.029392 0.012443
vn -1.197769 0.026020 6.049595
v -0.051043 0.003766 0.022487
vn -3.848375 0.686573 4.661306
v -0.066513 0.007472 0.015583
vn -0.572623 2.598788 4.042980
v -0.048608 0.026637 0.022498
vn -2.650760 0.884321 -3.184370
v -0.065611 0.030154 -0.006125
vn 0.837250 1.895535 -5.799234
v -0.020376 0.021255 -0.003631
vn 0.930642 6.075935 -0.841905
v -0.033413 0.028574 0.000275
vn -0.735572 5.245876 1.935038
v -0.059067 0.031356 0.012999
vn -3.332096 2.657624 1.847106
v -0.065153 0.029511 0.012246
vn -4.985100 0.499146 -2.364410
v -0.066835 0.023104 -0.005225
vn -5.001913 0.390923 -2.286643
v -0.067805 0.016240 -0.004512
vn 2.193224 2.506140 -3.075969
v 0.006947 0.008873 -0.003004
vn 1.706229 3.985044 -4.068805
v -0.019475 0.023645 -0.002181
vn 0.419589 -0.564340 -6.139033
v -0.030904 -0.016119 -0.007018
vn 0.729191 6.229470 -0.238468
v -0.038008 0.029142 0.000496
vn -2.074707 3.318762 -0.855502
v -0.065244 0.031973 -0.004546
vn 3.082235 -0.307174 5.451481
v -0.023689 0.015940 0.021805
vn 1.248134 5.091262 -2.281022
v -0.026733 0.027281 -0.000608
vn 1.492845 -0.314071 5.854854
v -0.026806 0.002860 0.022736
vn 1.134181 2.501196 3.679285
v -0.024837 0.024103 0.022719
vn -0.759691 -1.374497 5.724780
v -0.048705 -0.024482 0.022016
vn 0.309828 -3.235006 4.982465
v -0.047131 -0.025930 0.021457
vn -3.248040 -1.018394 4.790715
v -0.066596 -0.028503 0.015357
vn -2.315224 -2.444459 1.598406
v -0.067267 -0.033505 0.013484
vn -6.248640 -0.390299 -0.221631
v -0.068665 -0.021947 -0.002764
vn -5.032055 -0.087181 -2.404011
v -0.069130 -0.011925 -0.003589
vn 3.475623 -0.114318 -3.509877
v 0.009389 -0.000999 -0.002629
vn 4.865224 0.440161 2.624889
v 0.009489 0.004296 -0.001552
vn 2.366669 5.355773 -1.173948
v -0.018508 0.025167 0.001401
vn 2.316572 3.383806 -2.831331
v 0.006154 0.009520 -0.002940
vn 4.248226 -1.233415 1.307557
v 0.009042 -0.007642 -0.001301
vn 1.555286 -2.040911 5.141431
v -0.031994 -0.022388 0.021040
vn 3.977109 -3.025189 2.751098
v 0.007717 -0.010008 -0.001318
vn 3.051200 -0.731906 5.408232
v -0.025064 0.001001 0.021638
vn 4.172214 -0.564693 0.853112
v 0.009580 -0.005166 -0.001345
vn 2.768703 -1.857056 -2.296723
v 0.007870 -0.010161 -0.002517
vn 0.629446 -1.804169 -5.917863
v -0.031363 -0.016985 -0.006873
vn 1.128503 -2.986984 -5.370152
v -0.030373 -0.026592 -0.002444
vn -1.990744 2.000914 -2.307935
v -0.065461 0.031100 -0.005873
vn 3.815411 4.492598 1.334816
v 0.005789 0.009767 -0.001236
vn 3.111362 4.260439 2.343120
v -0.021505 0.023761 0.020456
vn 2.249234 0.981439 -0.951481
v 0.009581 0.006712 -0.002779
vn 2.322145 2.697124 3.244314
v -0.022629 0.023872 0.021649
vn 1.260908 6.035765 0.710845
v -0.028937 0.027832 0.010894
vn 2.671726 5.414876 0.738715
v -0.018284 0.025017 0.008808
vn -4.925877 -0.311728 -2.486521
v -0.068130 -0.028325 -0.004389
vn -0.329730 -5.127224 1.595437
v -0.060387 -0.034444 0.013000
vn 0.716633 -5.425809 2.017381
v -0.046398 -0.033315 0.012793
vn 3.322868 -4.189249 2.645117
v -0.016894 -0.024032 0.008210
vn 2.184546 -2.868987 -1.968914
v 0.006879 -0.011157 -0.002486
vn 2.941725 -2.575984 4.696335
v -0.030396 -0.022767 0.019933
vn -2.406406 -1.047681 -3.019607
v -0.067532 -0.033491 -0.004810
vn 1.213933 -4.200389 -4.239234
v -0.032544 -0.029301 -0.001199
vn 1.839903 -5.246533 -1.900434
v -0.030446 -0.029849 0.000473
vn 0.680833 -6.151262 -0.670866
v -0.048661 -0.033500 0.001000
vn 2.937755 -4.726452 1.901336
v -0.018116 -0.024739 0.008521
vn 2.083850 -4.249881 3.758179
v -0.030575 -0.026703 0.016817
vn 1.292455 -5.495542 1.786108
v -0.038242 -0.031998 0.012129
vn 2.267909 -5.326532 1.491132
v -0.027472 -0.028930 0.010648
vn 1.209875 -5.674863 -1.515604
v -0.038329 -0.032078 0.001240
vn 2.633198 -5.529747 -0.864681
v -0.019221 -0.025337 0.002670
vn -3.637364 0.068761 4.754375
v -0.067450 -0.009302 0.016500
vn -5.159034 -0.343513 2.423568
v -0.068501 -0.016312 0.014996
vn -3.531585 -0.144776 4.786426
v -0.067450 -0.010302 0.016500
vn -4.988423 0.374181 2.561389
v -0.068500 -0.001687 0.015000
# 71 vertices, 0 vertices normals

f 11//11 18//18 20//20
f 17//17 15//15 16//16
f 71//71 1//1 15//15
f 71//71 5//5 4//4
f 3//3 5//5 71//71
f 20//20 58//58 11//11
f 27//27 28//28 38//38
f 3//3 71//71 2//2
f 15//15 2//2 71//71
f 17//17 2//2 15//15
f 16//16 15//15 45//45
f 25//25 26//26 8//8
f 1//1 71//71 9//9
f 1//1 9//9 10//10
f 1//1 10//10 15//15
f 18//18 48//48 20//20
f 12//12 36//36 18//18
f 30//30 31//31 52//52
f 20//20 42//42 43//43
f 41//41 49//49 23//23
f 43//43 58//58 20//20
f 40//40 25//25 38//38
f 10//10 14//14 15//15
f 10//10 26//26 14//14
f 2//2 17//17 3//3
f 45//45 11//11 16//16
f 4//4 69//69 71//71
f 30//30 69//69 31//31
f 30//30 29//29 69//69
f 69//69 29//29 70//70
f 8//8 27//27 25//25
f 25//25 27//27 38//38
f 10//10 68//68 8//8
f 8//8 68//68 70//70
f 68//68 9//9 71//71
f 69//69 4//4 32//32
f 5//5 32//32 4//4
f 3//3 32//32 5//5
f 48//48 33//33 20//20
f 45//45 12//12 11//11
f 35//35 36//36 19//19
f 58//58 6//6 30//30
f 42//42 56//56 43//43
f 7//7 26//26 50//50
f 26//26 23//23 49//49
f 7//7 50//50 13//13
f 7//7 13//13 21//21
f 50//50 26//26 49//49
f 45//45 15//15 22//22
f 7//7 14//14 26//26
f 14//14 7//7 21//21
f 70//70 27//27 8//8
f 8//8 26//26 10//10
f 10//10 9//9 68//68
f 32//32 31//31 69//69
f 11//11 12//12 18//18
f 54//54 63//63 28//28
f 63//63 54//54 64//64
f 49//49 41//41 34//34
f 33//33 34//34 41//41
f 25//25 40//40 23//23
f 14//14 22//22 15//15
f 22//22 14//14 21//21
f 27//27 70//70 29//29
f 53//53 28//28 30//30
f 58//58 52//52 11//11
f 16//16 11//11 52//52
f 16//16 52//52 17//17
f 3//3 17//17 52//52
f 49//49 34//34 48//48
f 35//35 46//46 36//36
f 46//46 35//35 51//51
f 36//36 48//48 18//18
f 6//6 61//61 30//30
f 30//30 61//61 53//53
f 63//63 64//64 65//65
f 28//28 63//63 38//38
f 63//63 57//57 38//38
f 54//54 28//28 53//53
f 58//58 30//30 52//52
f 41//41 42//42 33//33
f 33//33 42//42 20//20
f 43//43 44//44 58//58
f 44//44 6//6 58//58
f 19//19 24//24 35//35
f 21//21 13//13 22//22
f 13//13 24//24 22//22
f 45//45 22//22 24//24
f 23//23 26//26 25//25
f 41//41 23//23 40//40
f 51//51 35//35 50//50
f 50//50 24//24 13//13
f 29//29 30//30 27//27
f 28//28 27//27 30//30
f 32//32 3//3 52//52
f 31//31 32//32 52//52
f 33//33 48//48 34//34
f 51//51 47//47 46//46
f 46//46 48//48 36//36
f 36//36 12//12 19//19
f 57//57 37//37 38//38
f 39//39 37//37 57//57
f 37//37 40//40 38//38
f 37//37 41//41 40//40
f 37//37 42//42 41//41
f 42//42 37//37 39//39
f 56//56 44//44 43//43
f 44//44 59//59 6//6
f 44//44 56//56 59//59
f 35//35 24//24 50//50
f 19//19 45//45 24//24
f 12//12 45//45 19//19
f 46//46 47//47 48//48
f 48//48 47//47 49//49
f 50//50 47//47 51//51
f 49//49 47//47 50//50
f 56//56 42//42 39//39
f 54//54 53//53 61//61
f 54//54 66//66 64//64
f 61//61 66//66 54//54
f 66//66 6//6 59//59
f 62//62 67//67 56//56
f 39//39 55//55 56//56
f 56//56 55//55 62//62
f 39//39 57//57 55//55
f 63//63 55//55 57//57
f 62//62 55//55 63//63
f 60//60 59//59 56//56
f 56//56 67//67 60//60
f 65//65 60//60 67//67
f 65//65 66//66 60//60
f 66//66 61//61 6//6
f 67//67 62//62 65//65
f 62//62 63//63 65//65
f 64//64 66//66 65//65
f 59//59 60//60 66//66
f 70//70 68//68 69//69
f 69//69 68//68 71//71
# 138 faces, 0 coords texture

# End of File
