####
#
# OBJ File Generated by Meshlab
#
####
# Object col_LeftIndex0.obj
#
# Vertices: 29
# Faces: 54
#
####
vn 0.251556 5.524012 -2.786354
v 0.009300 0.003988 -0.003053
vn 2.284559 1.901547 2.240601
v 0.018603 0.001872 0.003429
vn 3.436385 -2.381353 -0.158024
v 0.019667 -0.005733 0.000074
vn 0.585553 5.424644 2.810753
v 0.009300 0.004018 0.002996
vn 0.730617 5.028543 -2.945126
v 0.013800 0.002850 -0.004592
vn -0.250470 1.711375 -5.854774
v 0.005429 0.000574 -0.006095
vn 1.895556 2.691715 -3.533104
v 0.016612 0.001886 -0.005399
vn 0.874391 0.727094 -5.776854
v 0.014528 -0.000319 -0.006404
vn -0.323645 -1.494422 -5.669924
v 0.006642 -0.003336 -0.006467
vn 3.627240 2.441470 -0.585199
v 0.019455 0.001853 -0.001222
vn -1.915702 4.718112 -1.619599
v -0.002687 0.003985 -0.003122
vn -2.294729 -2.400174 -2.525280
v -0.002692 -0.003947 -0.005090
vn 1.991820 -2.209597 -2.685785
v 0.017148 -0.005647 -0.005399
vn -2.190433 1.651933 2.489695
v -0.004092 0.002414 0.005000
vn -3.234660 -0.043931 -2.441293
v -0.004780 0.000495 -0.005004
vn -2.039743 4.602499 1.530575
v -0.002819 0.003976 0.003128
vn 0.437829 2.451046 4.845894
v 0.008818 0.002597 0.004998
vn 0.364524 -2.558593 4.683098
v 0.009050 -0.006279 0.004961
vn -0.304738 -5.344114 1.709041
v 0.007105 -0.008346 0.002123
vn 3.238675 2.651531 -2.264496
v 0.018044 0.001850 -0.004099
vn -0.667975 -5.494127 -0.866386
v 0.006403 -0.008522 -0.001095
vn 0.686542 5.975605 -0.919240
v 0.009300 0.004629 -0.001250
vn -0.787335 5.971710 -0.002938
v -0.000856 0.004711 -0.000000
vn 0.735438 5.953585 0.957348
v 0.009300 0.004629 0.001250
vn -2.309093 2.086583 -2.584402
v -0.004094 0.002410 -0.004999
vn 2.163987 -2.005401 2.399645
v 0.018542 -0.005739 0.003444
vn -0.574495 -4.621999 -3.741095
v 0.006068 -0.007078 -0.003836
vn -1.648468 -2.606835 2.881295
v -0.001510 -0.004546 0.005001
vn -2.662423 -0.880873 2.223356
v -0.004752 -0.001450 0.005000
# 29 vertices, 0 vertices normals

f 1//1 5//5 11//11
f 24//24 2//2 10//10
f 15//15 29//29 14//14
f 23//23 16//16 24//24
f 12//12 15//15 9//9
f 5//5 20//20 7//7
f 13//13 7//7 20//20
f 10//10 22//22 24//24
f 1//1 22//22 5//5
f 20//20 22//22 10//10
f 5//5 22//22 20//20
f 8//8 6//6 7//7
f 25//25 5//5 7//7
f 2//2 3//3 10//10
f 4//4 17//17 2//2
f 4//4 2//2 24//24
f 16//16 4//4 24//24
f 26//26 18//18 19//19
f 6//6 8//8 9//9
f 23//23 11//11 16//16
f 22//22 11//11 23//23
f 11//11 22//22 1//1
f 6//6 9//9 25//25
f 16//16 11//11 25//25
f 2//2 26//26 3//3
f 3//3 26//26 19//19
f 19//19 28//28 21//21
f 4//4 16//16 17//17
f 25//25 11//11 5//5
f 25//25 9//9 15//15
f 25//25 7//7 6//6
f 13//13 9//9 8//8
f 12//12 9//9 27//27
f 27//27 21//21 12//12
f 13//13 20//20 10//10
f 3//3 13//13 10//10
f 12//12 21//21 28//28
f 8//8 7//7 13//13
f 16//16 14//14 17//17
f 15//15 12//12 29//29
f 19//19 21//21 3//3
f 28//28 19//19 18//18
f 21//21 27//27 13//13
f 21//21 13//13 3//3
f 23//23 24//24 22//22
f 26//26 17//17 18//18
f 2//2 17//17 26//26
f 16//16 25//25 14//14
f 25//25 15//15 14//14
f 9//9 13//13 27//27
f 14//14 28//28 17//17
f 29//29 28//28 14//14
f 17//17 28//28 18//18
f 28//28 29//29 12//12
# 54 faces, 0 coords texture

# End of File
