####
#
# OBJ File Generated by Meshlab
#
####
# Object col_RightMiddle0.obj
#
# Vertices: 37
# Faces: 70
#
####
vn -0.435471 4.854388 3.730975
v 0.005185 0.006642 0.000651
vn 0.578813 -5.036681 3.388054
v 0.009825 -0.003887 0.000342
vn 0.734526 -5.031904 -2.947807
v 0.013879 -0.003232 -0.007813
vn 0.336230 -5.597513 -2.570460
v 0.009904 -0.004374 -0.006212
vn -0.374366 5.396758 -2.579549
v 0.006192 0.007444 -0.006371
vn 1.888017 -2.485495 -3.789061
v 0.017024 -0.002028 -0.008824
vn 3.693975 -2.627473 -0.923484
v 0.019847 -0.002099 -0.004987
vn 3.744001 -2.633537 0.628728
v 0.019951 -0.002108 -0.002225
vn 3.039300 -2.638492 -2.495589
v 0.018470 -0.002092 -0.007624
vn -0.211977 -1.806461 -5.874542
v 0.006198 -0.000665 -0.009509
vn 3.254651 2.509927 -1.464901
v 0.019427 0.005501 -0.006377
vn 0.483320 5.286984 3.173112
v 0.009840 0.007077 0.000029
vn 3.541669 2.607936 0.593456
v 0.019902 0.005517 -0.001933
vn -0.169158 2.642748 -5.615889
v 0.006898 0.004405 -0.009184
vn 0.764279 -0.777910 -5.873917
v 0.014612 0.000379 -0.009849
vn -0.662166 5.986094 -0.189460
v 0.005300 0.008000 -0.003350
vn 1.427122 1.275841 -5.382912
v 0.015975 0.003916 -0.009449
vn -0.260835 0.565448 -6.084071
v 0.007218 0.002188 -0.009893
vn -0.526716 5.810219 1.483877
v 0.005413 0.007839 -0.001604
vn 0.637433 5.896788 1.252535
v 0.009800 0.007651 -0.001250
vn 0.608334 5.869330 -1.300271
v 0.009649 0.007683 -0.005437
vn 0.704100 -5.859850 1.165368
v 0.009791 -0.004876 -0.001893
vn 0.700945 -6.009667 -0.811529
v 0.009800 -0.004879 -0.004600
vn 0.384644 2.384241 4.954830
v 0.009289 0.005848 0.001650
vn -2.009575 1.505371 1.886219
v -0.005200 0.004500 0.001650
vn -2.332593 -1.137219 2.654403
v -0.005200 -0.002653 0.001650
vn 0.426524 -2.193257 5.190223
v 0.009300 -0.002664 0.001650
vn -2.510515 -1.245882 -2.657656
v -0.005200 -0.002653 -0.008350
vn 2.252865 -2.023300 2.640044
v 0.019013 -0.002086 0.000098
vn -2.781297 -2.574836 -1.704462
v -0.005200 -0.003822 -0.007148
vn -2.761988 -3.028424 0.586739
v -0.005200 -0.004877 -0.001993
vn -2.197198 1.629065 -1.873937
v -0.005200 0.004500 -0.008350
vn -2.762438 -3.025439 -0.591750
v -0.005200 -0.004879 -0.004600
vn -2.768281 -2.593329 1.673179
v -0.005200 -0.003960 0.000277
vn -0.300316 4.041241 -4.657300
v 0.005208 0.005775 -0.008266
vn 1.996571 2.687996 -3.163004
v 0.017500 0.005500 -0.008473
vn 2.139411 2.082863 2.636235
v 0.018989 0.005484 0.000103
# 37 vertices, 0 vertices normals

f 22//22 23//23 8//8
f 6//6 28//28 10//10
f 16//16 32//32 25//25
f 34//34 31//31 22//22
f 7//7 8//8 23//23
f 3//3 30//30 28//28
f 6//6 9//9 3//3
f 15//15 6//6 10//10
f 15//15 17//17 6//6
f 21//21 36//36 5//5
f 25//25 24//24 1//1
f 2//2 34//34 22//22
f 2//2 22//22 29//29
f 27//27 26//26 34//34
f 33//33 4//4 23//23
f 3//3 23//23 4//4
f 6//6 3//3 28//28
f 36//36 9//9 17//17
f 17//17 9//9 6//6
f 10//10 28//28 18//18
f 18//18 15//15 10//10
f 19//19 16//16 25//25
f 11//11 9//9 36//36
f 2//2 27//27 34//34
f 29//29 27//27 2//2
f 4//4 30//30 3//3
f 5//5 35//35 32//32
f 9//9 11//11 7//7
f 9//9 7//7 23//23
f 18//18 32//32 14//14
f 14//14 32//32 35//35
f 1//1 19//19 25//25
f 7//7 13//13 8//8
f 21//21 11//11 36//36
f 12//12 24//24 37//37
f 12//12 1//1 24//24
f 35//35 5//5 36//36
f 9//9 23//23 3//3
f 14//14 35//35 36//36
f 13//13 11//11 21//21
f 7//7 11//11 13//13
f 8//8 13//13 29//29
f 8//8 29//29 22//22
f 20//20 13//13 21//21
f 20//20 12//12 37//37
f 1//1 12//12 19//19
f 16//16 5//5 32//32
f 17//17 14//14 36//36
f 19//19 12//12 20//20
f 20//20 37//37 13//13
f 37//37 29//29 13//13
f 17//17 18//18 14//14
f 16//16 19//19 21//21
f 21//21 19//19 20//20
f 16//16 21//21 5//5
f 18//18 17//17 15//15
f 22//22 31//31 33//33
f 23//23 22//22 33//33
f 24//24 25//25 26//26
f 24//24 26//26 27//27
f 37//37 24//24 27//27
f 29//29 37//37 27//27
f 26//26 25//25 30//30
f 30//30 32//32 28//28
f 25//25 32//32 30//30
f 30//30 33//33 31//31
f 30//30 4//4 33//33
f 30//30 31//31 34//34
f 30//30 34//34 26//26
f 18//18 28//28 32//32
# 70 faces, 0 coords texture

# End of File
