####
#
# OBJ File Generated by Meshlab
#
####
# Object col_LeftMiddle0.obj
#
# Vertices: 17
# Faces: 30
#
####
vn 5.068054 0.736773 2.783049
v 0.004122 0.011141 0.003315
vn -2.124304 1.886925 2.718238
v -0.005394 0.017677 0.005375
vn 2.838120 0.499413 -4.025578
v 0.003179 0.009461 -0.004978
vn 2.282151 3.172873 1.171220
v 0.002091 0.019890 0.002048
vn -2.412909 3.428505 0.105431
v -0.005483 0.020167 -0.000074
vn 1.894007 2.256364 -2.168845
v 0.002122 0.019103 -0.003429
vn -1.507404 -1.974346 -1.871749
v -0.004500 -0.005200 -0.005000
vn -5.246590 -0.282731 1.015783
v -0.008355 0.006662 0.001380
vn -1.558606 -2.053052 1.880946
v -0.004525 -0.005167 0.005115
vn -2.014896 2.166388 -2.355229
v -0.005489 0.019042 -0.003444
vn 2.742531 -2.615635 1.250613
v 0.004090 -0.005200 0.003317
vn 1.271245 -2.383802 2.573729
v 0.002653 -0.005200 0.005000
vn 1.238028 -2.248039 -2.530802
v 0.002653 -0.005200 -0.005000
vn 5.849781 0.547962 -0.083408
v 0.005041 0.009308 0.000425
vn 2.844408 -2.458196 -0.766024
v 0.004764 -0.005197 -0.002167
vn -2.917985 0.502464 -3.249969
v -0.007009 0.010728 -0.004919
vn 1.592450 1.384556 4.440039
v 0.000485 0.015606 0.006365
# 17 vertices, 0 vertices normals

f 16//16 8//8 5//5
f 8//8 2//2 5//5
f 6//6 4//4 14//14
f 12//12 17//17 9//9
f 16//16 7//7 8//8
f 8//8 9//9 2//2
f 5//5 10//10 16//16
f 5//5 6//6 10//10
f 4//4 5//5 2//2
f 2//2 9//9 17//17
f 1//1 11//11 14//14
f 3//3 14//14 15//15
f 3//3 6//6 14//14
f 13//13 3//3 15//15
f 5//5 4//4 6//6
f 11//11 1//1 12//12
f 1//1 4//4 17//17
f 17//17 4//4 2//2
f 14//14 4//4 1//1
f 8//8 7//7 9//9
f 10//10 3//3 16//16
f 6//6 3//3 10//10
f 9//9 11//11 12//12
f 7//7 13//13 11//11
f 15//15 11//11 13//13
f 14//14 11//11 15//15
f 7//7 11//11 9//9
f 7//7 16//16 13//13
f 13//13 16//16 3//3
f 1//1 17//17 12//12
# 30 faces, 0 coords texture

# End of File
