####
#
# OBJ File Generated by Meshlab
#
####
# Object col_LeftLittle0.obj
#
# Vertices: 28
# Faces: 52
#
####
vn -1.459100 3.327142 -2.716216
v -0.002832 0.018929 -0.002249
vn -1.717503 3.490533 2.004283
v -0.003183 0.019177 0.003706
vn 4.128156 0.603416 2.754062
v 0.004992 0.008891 0.006505
vn -6.046743 -0.378751 -0.929992
v -0.006466 0.007562 0.000802
vn -5.452560 1.120325 -1.336842
v -0.006302 0.014519 -0.000468
vn -4.963300 1.710466 1.270862
v -0.006420 0.014827 0.003219
vn -5.995482 -0.478291 1.122887
v -0.006416 0.007250 0.002794
vn -2.296500 -2.478360 2.081403
v -0.004582 -0.003452 0.003593
vn -2.370139 -3.264908 -0.531361
v -0.004507 -0.004678 -0.001160
vn -1.409200 0.342325 -5.683841
v -0.001796 0.008123 -0.004654
vn 2.442313 -1.068088 5.248457
v 0.003309 0.005764 0.007411
vn 0.733428 4.103939 2.555376
v 0.001462 0.019333 0.003750
vn 0.405813 3.594954 -2.620743
v 0.000908 0.019483 -0.002253
vn 1.868947 0.637674 -5.542016
v 0.002525 0.009757 -0.004289
vn 4.892071 0.393719 -2.429491
v 0.004999 0.008816 -0.002528
vn -1.122029 -1.432570 -5.316037
v -0.001938 -0.001863 -0.004488
vn 1.318046 -1.833951 -4.674636
v 0.002651 -0.002335 -0.004327
vn -2.424839 -2.170886 -2.429601
v -0.004497 -0.003720 -0.002951
vn -3.139864 1.914026 -2.499019
v -0.005166 0.016946 -0.002251
vn 2.847050 2.561866 1.860461
v 0.003440 0.018556 0.003714
vn 2.483749 2.164536 -2.023219
v 0.003444 0.018543 -0.002239
vn 2.462338 -2.942486 0.306698
v 0.005000 -0.004816 0.000349
vn 2.490127 -2.131350 -1.800716
v 0.005000 -0.004097 -0.002403
vn 2.518036 -1.998419 2.129076
v 0.005029 -0.003125 0.003735
vn -1.061914 -0.665186 5.267486
v -0.001380 0.006577 0.008496
vn 1.063135 1.157682 5.666286
v 0.001246 0.009303 0.008128
vn -2.529587 1.493932 4.256220
v -0.004592 0.013800 0.006350
vn -4.640174 -0.640632 3.621050
v -0.005230 0.006128 0.005627
# 28 vertices, 0 vertices normals

f 7//7 6//6 4//4
f 11//11 25//25 24//24
f 9//9 18//18 17//17
f 17//17 18//18 16//16
f 1//1 10//10 19//19
f 14//14 10//10 13//13
f 1//1 13//13 10//10
f 13//13 1//1 2//2
f 25//25 8//8 24//24
f 9//9 4//4 18//18
f 5//5 18//18 4//4
f 4//4 9//9 7//7
f 12//12 13//13 2//2
f 9//9 8//8 7//7
f 9//9 22//22 8//8
f 27//27 2//2 6//6
f 12//12 2//2 26//26
f 27//27 26//26 2//2
f 17//17 23//23 9//9
f 11//11 24//24 3//3
f 25//25 11//11 26//26
f 3//3 26//26 11//11
f 12//12 26//26 20//20
f 3//3 20//20 26//26
f 7//7 28//28 6//6
f 28//28 7//7 8//8
f 22//22 24//24 8//8
f 5//5 19//19 18//18
f 5//5 4//4 6//6
f 2//2 19//19 5//5
f 2//2 5//5 6//6
f 13//13 21//21 14//14
f 21//21 13//13 20//20
f 20//20 13//13 12//12
f 19//19 2//2 1//1
f 8//8 25//25 28//28
f 23//23 22//22 9//9
f 18//18 19//19 10//10
f 16//16 18//18 10//10
f 28//28 27//27 6//6
f 21//21 15//15 14//14
f 15//15 17//17 14//14
f 17//17 15//15 23//23
f 10//10 14//14 17//17
f 16//16 10//10 17//17
f 15//15 21//21 3//3
f 3//3 21//21 20//20
f 23//23 15//15 22//22
f 15//15 3//3 22//22
f 3//3 24//24 22//22
f 27//27 25//25 26//26
f 27//27 28//28 25//25
# 52 faces, 0 coords texture

# End of File
