####
#
# OBJ File Generated by Meshlab
#
####
# Object col_RightThumb3.obj
#
# Vertices: 128
# Faces: 252
#
####
vn 1.158316 5.940771 -1.379056
v -0.005500 0.006291 -0.001635
vn 0.550208 6.177291 -0.148276
v -0.005490 0.006500 -0.000047
vn 3.277229 -1.260175 -3.144168
v 0.002310 -0.000957 -0.005300
vn 3.497565 0.002618 -3.003328
v 0.002500 -0.000000 -0.005300
vn 1.274275 3.961637 4.652821
v 0.001500 0.004076 0.005063
vn 2.608460 -2.455930 -3.360856
v 0.001768 -0.001768 -0.005300
vn 1.623023 -3.289927 -3.665106
v 0.000924 -0.002313 -0.005318
vn 2.051082 3.489037 -3.823257
v 0.000957 0.002310 -0.005300
vn 2.733140 2.459369 -3.411706
v 0.001768 0.001768 -0.005300
vn 3.316848 1.259262 -3.109440
v 0.002310 0.000957 -0.005300
vn 0.557888 3.826875 -4.785054
v -0.009500 0.005051 -0.006285
vn 0.251453 2.811191 5.274372
v -0.009539 0.004909 0.006399
vn -4.272395 -1.760461 3.954910
v -0.022307 -0.001453 0.003913
vn -0.448279 -4.124311 -4.602854
v -0.015189 -0.004206 -0.004769
vn -0.198637 -5.070563 -3.590077
v -0.012727 -0.005314 -0.003694
vn 0.332604 -0.083605 -6.193665
v -0.009500 0.003000 -0.007000
vn -0.750173 -2.866587 -5.434766
v -0.016634 -0.002898 -0.005520
vn -5.281945 -2.396341 -1.800933
v -0.023233 -0.002357 -0.001785
vn 0.509662 2.989742 -5.371529
v -0.009500 0.004592 -0.006590
vn -0.413804 6.220257 0.485375
v -0.020044 0.006300 0.002209
vn 2.523402 4.849143 1.690512
v 0.000938 0.005328 0.003723
vn -0.201065 6.084309 1.178940
v -0.017118 0.006300 0.003317
vn -2.856943 -2.172382 4.791619
v -0.021111 -0.001925 0.004726
vn -4.192277 3.463440 1.311213
v -0.023577 0.005097 0.001721
vn -2.359801 4.946744 -1.428836
v -0.022113 0.006048 -0.002097
vn -6.047339 0.116931 -0.658123
v -0.024353 0.002977 -0.000694
vn -4.676018 2.862445 -1.343517
v -0.023881 0.004611 -0.001654
vn -5.941058 -1.373750 -0.786708
v -0.023717 -0.001365 -0.000954
vn -0.501309 5.643407 -1.928180
v -0.016484 0.006276 -0.003954
vn -2.370243 4.014293 -3.447526
v -0.021528 0.005330 -0.003868
vn -3.788600 0.887629 -4.242085
v -0.022559 0.002985 -0.004608
vn -5.343004 -1.398151 -2.708672
v -0.023212 -0.001124 -0.002730
vn -4.851093 0.870991 -2.709100
v -0.023793 0.003200 -0.003099
vn 1.761020 -4.769269 1.548974
v 0.000500 -0.005200 0.003900
vn 2.117120 -3.799167 2.710139
v 0.002009 -0.003691 0.005350
vn -4.258684 -4.160921 -0.452389
v -0.022418 -0.004060 -0.000528
vn -4.210061 -3.283578 -2.795508
v -0.022349 -0.003139 -0.002679
vn 0.110959 -1.114527 6.136250
v -0.002500 -0.001500 0.006325
vn -0.092620 -1.533794 6.050488
v -0.010282 -0.001612 0.006308
vn -0.351889 5.088194 3.313937
v -0.013363 0.005796 0.005258
vn -0.310272 -5.776481 -2.250771
v -0.013535 -0.006027 -0.002311
vn 0.553620 -3.419035 -4.935864
v -0.005196 -0.003000 -0.005766
vn -0.161345 -2.933019 -5.482250
v -0.012041 -0.002995 -0.005750
vn -1.298211 -1.577345 -5.861326
v -0.018542 -0.001396 -0.005754
vn -0.599965 -1.559787 -6.003892
v -0.016199 -0.001501 -0.006075
vn 0.475797 2.058580 -5.812043
v -0.009500 0.004086 -0.006816
vn 0.473456 1.076244 -6.091306
v -0.009500 0.003549 -0.006954
vn -1.104317 0.840736 -5.754124
v -0.017971 0.003036 -0.006556
vn 0.305432 6.097427 -1.138780
v -0.009725 0.006276 -0.004225
vn -3.314923 0.878606 4.532015
v -0.021957 0.002989 0.005131
vn 0.277877 4.676280 3.968940
v -0.009492 0.005534 0.005837
vn -5.052127 0.471442 2.800121
v -0.023767 0.002966 0.003071
vn -3.318017 3.472617 3.247469
v -0.022623 0.004923 0.003400
vn -1.117301 0.942837 5.707376
v -0.018270 0.003050 0.006497
vn -2.301270 1.020484 -5.116343
v -0.020715 0.003004 -0.005812
vn 1.788633 5.025741 -2.940293
v -0.003500 0.004784 -0.004400
vn -0.019712 -2.319822 5.825880
v -0.009000 -0.002267 0.006092
vn -0.084886 0.416787 6.098599
v -0.013095 0.003042 0.006956
vn -0.579482 0.508575 6.028061
v -0.015491 0.003056 0.006835
vn 0.642973 -5.722186 -2.144642
v -0.009000 -0.006078 -0.002305
vn 0.477065 -5.125671 -3.417971
v -0.009000 -0.005349 -0.003692
vn 0.144238 -4.176789 -4.593439
v -0.009179 -0.004348 -0.004846
vn -5.786623 0.770706 0.731087
v -0.024373 0.003385 0.000934
vn -1.024311 -5.010216 -3.415351
v -0.017841 -0.005018 -0.003442
vn -0.208751 -1.588103 -6.024644
v -0.012489 -0.001527 -0.006297
vn -1.347196 -3.957436 -4.556501
v -0.018475 -0.003926 -0.004449
vn -2.122242 -1.423070 -5.677948
v -0.020122 -0.001293 -0.005307
vn -3.081203 -1.957795 -4.862028
v -0.021226 -0.001708 -0.004702
vn -1.880633 -2.790315 -5.161157
v -0.019686 -0.002574 -0.005004
vn -4.235326 -1.789227 -3.971950
v -0.022296 -0.001507 -0.003911
vn -0.485990 0.416605 -6.076088
v -0.015135 0.003000 -0.006847
vn -0.232360 0.462955 -6.088697
v -0.012556 0.003105 -0.006982
vn -0.519178 2.842412 -5.430448
v -0.014543 0.004264 -0.006516
vn -2.101927 5.494314 0.601139
v -0.022053 0.006171 0.001108
vn -1.928742 1.394607 5.092068
v -0.020217 0.003184 0.005998
vn 0.123966 6.053970 1.314277
v -0.009554 0.006245 0.004379
vn 2.139306 4.925613 0.318300
v 0.000500 0.005766 0.003000
vn -1.289417 3.510838 -4.886028
v -0.018399 0.004271 -0.005856
vn -0.602518 4.552872 -4.091597
v -0.014968 0.005411 -0.005570
vn 0.622531 4.575826 -4.043375
v -0.009500 0.005453 -0.005907
vn 0.031710 -5.818921 2.181238
v -0.009380 -0.006110 0.002248
vn -0.497269 -5.761726 2.260318
v -0.015189 -0.005948 0.002249
vn -0.196016 -5.060723 3.562519
v -0.013197 -0.005307 0.003701
vn -0.969881 -5.074437 3.398836
v -0.017357 -0.005038 0.003482
vn -2.736176 -3.948841 -3.559875
v -0.020890 -0.003823 -0.003521
vn -3.151809 -3.858233 3.456073
v -0.021341 -0.003702 0.003221
vn -5.324101 -2.910810 0.109137
v -0.023217 -0.002958 -0.000004
vn -2.831431 -5.110121 1.246262
v -0.020946 -0.005021 0.001205
vn -1.693090 -5.841242 -0.558484
v -0.019337 -0.005719 -0.000705
vn -3.105393 -4.999457 -1.368610
v -0.021341 -0.004752 -0.001222
vn -4.160473 -3.507139 2.335152
v -0.022353 -0.003460 0.002363
vn -0.392829 2.626881 5.554224
v -0.014182 0.004050 0.006646
vn -5.307220 -2.351112 1.748998
v -0.023231 -0.002366 0.001778
vn -5.329906 -1.422450 2.716932
v -0.023212 -0.001126 0.002730
vn -5.972477 -1.294984 0.894712
v -0.023719 -0.001184 0.001065
vn 0.484590 -0.704778 -6.174822
v -0.005968 -0.000649 -0.006472
vn 0.338252 -1.685983 -5.981016
v -0.005702 -0.001870 -0.006225
vn -0.457884 6.228305 -0.357062
v -0.020483 0.006300 -0.001317
vn -0.014064 6.272515 0.028027
v -0.009000 0.006500 0.000000
vn 0.255734 5.600235 2.663183
v -0.009500 0.006004 0.005064
vn -0.408787 -1.641644 5.988618
v -0.014581 -0.001528 0.006201
vn -0.561106 -4.058448 4.614933
v -0.015763 -0.004206 0.004743
vn -1.099870 -2.892801 5.304381
v -0.017716 -0.002819 0.005415
vn 2.052458 -4.345435 2.507385
v 0.001157 -0.004535 0.004658
vn -0.453536 -6.124951 -0.806323
v -0.014450 -0.006374 -0.000768
vn -0.451475 -6.135436 0.727812
v -0.014740 -0.006362 0.000764
vn -1.393075 -5.712642 1.490799
v -0.018746 -0.005741 0.001452
vn -1.535475 -5.487932 -2.164035
v -0.018971 -0.005494 -0.002079
vn -1.396702 4.954555 2.584614
v -0.020489 0.006091 0.003376
vn 0.513420 5.397427 -2.707917
v -0.009637 0.006009 -0.005162
vn -1.903855 -4.266298 3.774850
v -0.019761 -0.004236 0.003746
vn -2.041894 -1.505858 5.661481
v -0.020122 -0.001307 0.005303
vn -1.207036 -1.548414 5.877219
v -0.018172 -0.001432 0.005837
vn -0.028697 -4.176313 4.621377
v -0.006005 -0.004370 0.004842
vn -0.185821 -3.003368 5.425889
v -0.012465 -0.003069 0.005706
vn -0.908373 3.894300 4.628864
v -0.016477 0.004842 0.005864
vn 5.791061 1.631145 -0.188238
v 0.003000 0.002300 0.005000
vn 4.843818 3.713037 -0.638690
v 0.001500 0.004766 0.003000
vn 2.892971 3.919072 2.050005
v 0.001500 0.004766 0.004420
vn 5.358248 -2.169921 -0.112651
v 0.003000 -0.002700 0.004850
vn 2.634283 -1.864826 2.184818
v 0.003000 -0.002700 0.005913
vn 5.080785 -3.177454 -0.612789
v 0.002700 -0.003000 0.003000
vn 2.789347 -0.892158 2.955590
v 0.003000 -0.002517 0.005999
vn 2.958032 0.280493 3.136962
v 0.003000 0.001500 0.006325
vn 3.063896 1.599658 2.430813
v 0.003004 0.002281 0.006093
vn 0.529210 -6.081628 -0.820133
v -0.009011 -0.006454 -0.000788
vn 0.272726 -6.162640 0.651626
v -0.009019 -0.006455 0.000777
vn 2.582394 -5.162378 -0.633434
v 0.000500 -0.005200 0.003000
# 128 vertices, 0 vertices normals

f 6//6 122//122 128//128
f 8//8 56//56 77//77
f 9//9 8//8 77//77
f 77//77 118//118 9//9
f 120//120 4//4 117//117
f 38//38 124//124 58//58
f 119//119 5//5 125//125
f 5//5 12//12 125//125
f 29//29 98//98 99//99
f 21//21 51//51 119//119
f 21//21 119//119 118//118
f 77//77 21//21 118//118
f 2//2 77//77 1//1
f 1//1 77//77 56//56
f 1//1 49//49 2//2
f 1//1 110//110 49//49
f 1//1 56//56 110//110
f 2//2 76//76 77//77
f 10//10 4//4 16//16
f 4//4 10//10 117//117
f 10//10 118//118 117//117
f 9//9 118//118 10//10
f 97//97 96//96 6//6
f 96//96 16//16 4//4
f 3//3 6//6 96//96
f 3//3 96//96 4//4
f 3//3 122//122 6//6
f 3//3 120//120 122//122
f 3//3 4//4 120//120
f 124//124 38//38 123//123
f 39//39 123//123 38//38
f 58//58 124//124 12//12
f 51//51 5//5 119//119
f 51//51 12//12 5//5
f 125//125 12//12 124//124
f 7//7 61//61 42//42
f 63//63 24//24 27//27
f 80//80 56//56 8//8
f 46//46 8//8 9//9
f 46//46 19//19 8//8
f 46//46 73//73 19//19
f 35//35 128//128 122//122
f 35//35 34//34 128//128
f 34//34 35//35 104//104
f 127//127 34//34 81//81
f 7//7 97//97 6//6
f 7//7 6//6 128//128
f 42//42 97//97 7//7
f 128//128 60//60 7//7
f 60//60 61//61 7//7
f 39//39 38//38 58//58
f 92//92 59//59 58//58
f 92//92 58//58 12//12
f 23//23 91//91 86//86
f 13//13 91//91 23//23
f 61//61 62//62 42//42
f 59//59 113//113 101//101
f 25//25 27//27 24//24
f 8//8 19//19 11//11
f 11//11 80//80 8//8
f 47//47 46//46 9//9
f 47//47 10//10 16//16
f 9//9 10//10 47//47
f 47//47 16//16 72//72
f 84//84 111//111 107//107
f 126//126 60//60 128//128
f 106//106 82//82 107//107
f 93//93 91//91 13//13
f 94//94 93//93 13//13
f 41//41 64//64 15//15
f 15//15 64//64 14//14
f 43//43 62//62 14//14
f 62//62 15//15 14//14
f 42//42 43//43 97//97
f 32//32 28//28 33//33
f 44//44 45//45 17//17
f 44//44 48//48 45//45
f 85//85 37//37 70//70
f 25//25 29//29 30//30
f 29//29 25//25 98//98
f 109//109 20//20 74//74
f 2//2 49//49 99//99
f 49//49 29//29 99//99
f 92//92 54//54 59//59
f 54//54 113//113 59//59
f 75//75 112//112 113//113
f 24//24 74//74 25//25
f 27//27 26//26 63//63
f 79//79 78//78 30//30
f 79//79 73//73 78//78
f 70//70 31//31 68//68
f 73//73 11//11 19//19
f 80//80 11//11 79//79
f 79//79 11//11 73//73
f 82//82 83//83 84//84
f 107//107 82//82 84//84
f 114//114 34//34 104//104
f 87//87 93//93 95//95
f 28//28 87//87 95//95
f 28//28 95//95 26//26
f 12//12 51//51 40//40
f 52//52 13//13 50//50
f 52//52 94//94 13//13
f 50//50 13//13 23//23
f 24//24 63//63 52//52
f 41//41 105//105 108//108
f 17//17 14//14 66//66
f 14//14 17//17 43//43
f 97//97 43//43 65//65
f 65//65 72//72 16//16
f 16//16 96//96 65//65
f 65//65 17//17 45//45
f 65//65 43//43 17//17
f 28//28 32//32 18//18
f 70//70 37//37 18//18
f 18//18 32//32 70//70
f 68//68 55//55 67//67
f 55//55 78//78 48//48
f 71//71 65//65 45//45
f 72//72 71//71 73//73
f 73//73 48//48 78//78
f 20//20 22//22 99//99
f 20//20 109//109 22//22
f 21//21 100//100 51//51
f 100//100 21//21 77//77
f 50//50 23//23 112//112
f 50//50 112//112 75//75
f 53//53 50//50 75//75
f 54//54 92//92 116//116
f 33//33 28//28 26//26
f 26//26 27//27 33//33
f 87//87 28//28 18//18
f 33//33 27//27 30//30
f 30//30 27//27 25//25
f 29//29 49//49 110//110
f 55//55 31//31 30//30
f 31//31 55//55 68//68
f 33//33 30//30 31//31
f 31//31 70//70 33//33
f 33//33 70//70 32//32
f 34//34 83//83 81//81
f 123//123 35//35 121//121
f 35//35 123//123 115//115
f 57//57 123//123 39//39
f 123//123 57//57 115//115
f 111//111 23//23 86//86
f 36//36 18//18 37//37
f 37//37 90//90 36//36
f 36//36 87//87 18//18
f 85//85 90//90 37//37
f 41//41 61//61 60//60
f 53//53 24//24 52//52
f 44//44 17//17 69//69
f 17//17 66//66 69//69
f 64//64 66//66 14//14
f 64//64 41//41 108//108
f 42//42 62//62 43//43
f 69//69 67//67 44//44
f 44//44 67//67 55//55
f 55//55 48//48 44//44
f 48//48 73//73 71//71
f 45//45 48//48 71//71
f 46//46 72//72 73//73
f 47//47 72//72 46//46
f 2//2 22//22 76//76
f 99//99 22//22 2//2
f 109//109 74//74 24//24
f 40//40 76//76 22//22
f 40//40 51//51 100//100
f 53//53 52//52 50//50
f 75//75 54//54 116//116
f 54//54 75//75 113//113
f 20//20 98//98 74//74
f 20//20 99//99 98//98
f 78//78 55//55 30//30
f 80//80 79//79 110//110
f 56//56 80//80 110//110
f 29//29 79//79 30//30
f 115//115 57//57 39//39
f 101//101 115//115 39//39
f 101//101 39//39 58//58
f 101//101 58//58 59//59
f 102//102 84//84 83//83
f 89//89 107//107 88//88
f 88//88 107//107 111//111
f 88//88 111//111 86//86
f 126//126 127//127 105//105
f 126//126 41//41 60//60
f 126//126 105//105 41//41
f 41//41 15//15 61//61
f 15//15 62//62 61//61
f 95//95 94//94 52//52
f 52//52 63//63 95//95
f 26//26 95//95 63//63
f 69//69 66//66 85//85
f 85//85 66//66 64//64
f 67//67 69//69 68//68
f 68//68 85//85 70//70
f 85//85 68//68 69//69
f 72//72 65//65 71//71
f 98//98 25//25 74//74
f 109//109 53//53 75//75
f 53//53 109//109 24//24
f 116//116 40//40 109//109
f 22//22 109//109 40//40
f 76//76 100//100 77//77
f 81//81 106//106 127//127
f 105//105 127//127 106//106
f 81//81 83//83 82//82
f 82//82 106//106 81//81
f 34//34 114//114 83//83
f 84//84 102//102 111//111
f 64//64 108//108 85//85
f 108//108 89//89 90//90
f 108//108 90//90 85//85
f 91//91 88//88 86//86
f 91//91 93//93 87//87
f 87//87 36//36 91//91
f 90//90 89//89 88//88
f 88//88 36//36 90//90
f 88//88 91//91 36//36
f 95//95 93//93 94//94
f 97//97 65//65 96//96
f 109//109 75//75 116//116
f 76//76 40//40 100//100
f 29//29 110//110 79//79
f 103//103 111//111 102//102
f 103//103 101//101 113//113
f 115//115 101//101 103//103
f 115//115 103//103 102//102
f 105//105 89//89 108//108
f 89//89 106//106 107//107
f 106//106 89//89 105//105
f 92//92 12//12 116//116
f 23//23 111//111 103//103
f 112//112 23//23 103//103
f 103//103 113//113 112//112
f 102//102 83//83 114//114
f 102//102 114//114 115//115
f 35//35 115//115 114//114
f 116//116 12//12 40//40
f 104//104 35//35 114//114
f 125//125 118//118 119//119
f 125//125 117//117 118//118
f 35//35 120//120 121//121
f 35//35 122//122 120//120
f 123//123 120//120 117//117
f 123//123 121//121 120//120
f 123//123 117//117 125//125
f 123//123 125//125 124//124
f 127//127 126//126 34//34
f 126//126 128//128 34//34
# 252 faces, 0 coords texture

# End of File
