####
#
# OBJ File Generated by Meshlab
#
####
# Object col_RightIndex1.obj
#
# Vertices: 32
# Faces: 60
#
####
vn 1.068048 5.637326 1.348772
v 0.025854 0.006225 0.002035
vn 0.832888 5.949927 -0.486214
v 0.025530 0.006453 -0.001029
vn -1.925590 3.516753 -3.575179
v -0.001099 0.003843 -0.005275
vn -0.619060 5.774421 0.348731
v 0.005729 0.006631 0.000522
vn -2.681390 1.778367 2.695086
v -0.001781 0.001839 0.005332
vn 1.269288 2.608242 -4.688263
v 0.024900 0.004592 -0.004600
vn 2.233638 3.792034 -2.067227
v 0.026916 0.005962 -0.002716
vn 3.513300 0.110585 2.571556
v 0.030451 -0.000030 0.003961
vn -0.557728 2.684402 5.265086
v 0.003920 0.003234 0.005681
vn 0.590809 -5.354469 -1.809439
v 0.018437 -0.006048 -0.002780
vn -0.646446 -5.634231 2.010152
v 0.007018 -0.005860 0.002935
vn -1.231368 -4.084731 3.140198
v 0.003088 -0.004531 0.004758
vn 0.300607 2.616253 -5.609404
v 0.020400 0.002631 -0.005944
vn -0.216897 -0.777110 5.828642
v 0.007351 -0.001002 0.006663
vn 2.160686 2.645789 2.489507
v 0.027950 0.005069 0.004104
vn 0.489974 1.662892 5.645917
v 0.020479 0.002353 0.006129
vn 0.592204 -4.927942 2.612623
v 0.019563 -0.005457 0.003807
vn 0.770752 -3.556994 -4.725790
v 0.020016 -0.003697 -0.005382
vn -2.668517 -1.238729 2.334193
v -0.002336 -0.001538 0.005315
vn -2.432568 -1.567321 -1.955478
v -0.003023 -0.002947 -0.005823
vn 2.243107 -2.524522 2.248272
v 0.029177 -0.003435 0.003997
vn -1.667708 -4.269409 -1.709148
v -0.001311 -0.004353 -0.004831
vn -0.480711 -5.876429 -0.366396
v 0.008145 -0.006581 -0.000401
vn 0.612790 -1.814563 5.520339
v 0.020458 -0.002330 0.006135
vn 3.643703 0.569384 -1.963992
v 0.030928 0.000789 -0.002506
vn -1.213930 4.867254 2.835058
v 0.003884 0.005275 0.003826
vn -2.497313 0.919340 -2.281785
v -0.003090 0.001329 -0.006333
vn 0.867175 0.793786 -5.928782
v 0.020400 0.001500 -0.006325
vn 0.964219 -1.179399 -5.749655
v 0.020312 -0.001500 -0.006325
vn -0.014637 -1.192991 -6.048879
v 0.003658 -0.001625 -0.006324
vn -2.077449 4.164217 -1.280494
v -0.000314 0.005201 -0.003923
vn 2.566532 -2.435023 -1.811458
v 0.029768 -0.003417 -0.002531
# 32 vertices, 0 vertices normals

f 19//19 22//22 12//12
f 1//1 2//2 4//4
f 31//31 27//27 5//5
f 3//3 6//6 13//13
f 7//7 1//1 15//15
f 5//5 9//9 26//26
f 7//7 2//2 1//1
f 26//26 1//1 4//4
f 15//15 1//1 26//26
f 4//4 2//2 7//7
f 7//7 25//25 6//6
f 15//15 25//25 7//7
f 31//31 4//4 7//7
f 31//31 26//26 4//4
f 31//31 5//5 26//26
f 24//24 16//16 14//14
f 25//25 32//32 29//29
f 20//20 27//27 30//30
f 10//10 23//23 22//22
f 23//23 11//11 12//12
f 22//22 23//23 12//12
f 13//13 6//6 28//28
f 28//28 6//6 25//25
f 28//28 25//25 29//29
f 19//19 14//14 5//5
f 19//19 5//5 27//27
f 19//19 27//27 20//20
f 13//13 27//27 3//3
f 6//6 3//3 31//31
f 31//31 7//7 6//6
f 24//24 8//8 16//16
f 15//15 26//26 9//9
f 19//19 12//12 14//14
f 9//9 5//5 14//14
f 18//18 30//30 29//29
f 18//18 29//29 32//32
f 17//17 11//11 23//23
f 11//11 17//17 12//12
f 15//15 8//8 25//25
f 15//15 16//16 8//8
f 13//13 28//28 27//27
f 21//21 10//10 32//32
f 9//9 16//16 15//15
f 9//9 14//14 16//16
f 18//18 32//32 10//10
f 20//20 30//30 18//18
f 10//10 17//17 23//23
f 17//17 21//21 24//24
f 24//24 12//12 17//17
f 24//24 14//14 12//12
f 32//32 25//25 8//8
f 17//17 10//10 21//21
f 18//18 10//10 22//22
f 22//22 19//19 20//20
f 21//21 8//8 24//24
f 32//32 8//8 21//21
f 20//20 18//18 22//22
f 28//28 29//29 30//30
f 27//27 28//28 30//30
f 27//27 31//31 3//3
# 60 faces, 0 coords texture

# End of File
