####
#
# OBJ File Generated by Meshlab
#
####
# Object col_LeftHandPalm.obj
#
# Vertices: 29
# Faces: 54
#
####
vn 4.338789 -0.975030 -3.330948
v 0.064387 -0.026702 -0.014150
vn -1.400916 -2.874564 4.634355
v 0.017085 -0.021485 0.003296
vn 5.128489 -0.295096 2.063296
v 0.068547 -0.009794 0.003955
vn 4.309510 -0.312815 -2.843179
v 0.068399 0.001669 -0.015893
vn 4.046969 0.099720 -2.821780
v 0.068594 0.011386 -0.016303
vn 2.057386 -1.422059 2.389577
v 0.065819 -0.030523 0.006116
vn -1.501392 -2.312303 -3.336457
v 0.023717 -0.024262 -0.022546
vn 2.175516 -2.715208 -1.370780
v 0.064390 -0.031842 -0.012283
vn -0.513838 1.058544 5.944312
v 0.030985 0.016305 0.007113
vn -1.307669 4.042426 3.956022
v 0.032127 0.028637 0.001811
vn 2.398176 1.232395 2.483756
v 0.067891 0.033624 0.004788
vn -1.578373 0.659472 0.365275
v -0.010706 0.008891 0.002490
vn -2.320243 -5.156271 1.585108
v 0.018546 -0.025184 -0.001096
vn -0.965763 -5.003828 2.420254
v 0.032019 -0.028334 0.000987
vn 1.522753 3.102262 1.526396
v 0.067326 0.034838 0.004067
vn -0.335138 5.337209 -2.054622
v 0.052798 0.034113 -0.013022
vn -1.128690 5.662597 1.413394
v 0.042322 0.032953 -0.001428
vn 0.217979 2.207171 -5.006915
v 0.048392 0.025563 -0.022059
vn 2.326469 2.138628 -1.904673
v 0.067274 0.032378 -0.014869
vn -3.011748 4.413000 -2.058391
v 0.017714 0.024524 -0.008506
vn -1.643882 2.355334 -4.768379
v 0.031995 0.023116 -0.020892
vn -2.206157 5.237495 1.599382
v 0.023435 0.027390 -0.001603
vn -1.834735 4.944928 -2.087694
v 0.030678 0.029888 -0.012891
vn 1.805296 -3.364256 1.176153
v 0.065265 -0.031996 0.004587
vn -2.057950 -5.451387 -0.779133
v 0.022357 -0.027301 -0.010895
vn 1.146977 -0.024323 -6.056517
v 0.050901 -0.003758 -0.022600
vn 0.527781 -2.610950 -3.998639
v 0.048466 -0.026629 -0.022600
vn -1.732424 0.424121 -5.710279
v 0.026513 -0.001507 -0.022587
vn -1.676208 -0.569788 0.491167
v -0.010882 -0.006499 0.002908
# 29 vertices, 0 vertices normals

f 6//6 29//29 2//2
f 6//6 11//11 9//9
f 6//6 9//9 29//29
f 3//3 1//1 4//4
f 8//8 1//1 3//3
f 27//27 4//4 1//1
f 27//27 1//1 8//8
f 28//28 12//12 21//21
f 12//12 29//29 9//9
f 6//6 24//24 8//8
f 26//26 28//28 18//18
f 21//21 18//18 28//28
f 18//18 5//5 26//26
f 25//25 29//29 7//7
f 29//29 25//25 13//13
f 24//24 14//14 25//25
f 3//3 4//4 11//11
f 24//24 25//25 8//8
f 8//8 3//3 6//6
f 5//5 19//19 11//11
f 4//4 5//5 11//11
f 27//27 26//26 5//5
f 12//12 9//9 10//10
f 11//11 6//6 3//3
f 25//25 7//7 8//8
f 27//27 8//8 7//7
f 18//18 19//19 5//5
f 5//5 4//4 27//27
f 9//9 11//11 10//10
f 10//10 11//11 15//15
f 15//15 11//11 19//19
f 14//14 24//24 6//6
f 21//21 23//23 18//18
f 25//25 14//14 13//13
f 29//29 13//13 2//2
f 10//10 15//15 17//17
f 22//22 10//10 17//17
f 16//16 17//17 15//15
f 18//18 23//23 16//16
f 29//29 12//12 7//7
f 7//7 12//12 28//28
f 6//6 2//2 14//14
f 23//23 17//17 16//16
f 21//21 12//12 20//20
f 19//19 18//18 16//16
f 19//19 16//16 15//15
f 12//12 22//22 20//20
f 22//22 23//23 20//20
f 20//20 23//23 21//21
f 12//12 10//10 22//22
f 14//14 2//2 13//13
f 22//22 17//17 23//23
f 27//27 7//7 26//26
f 26//26 7//7 28//28
# 54 faces, 0 coords texture

# End of File
