####
#
# OBJ File Generated by Meshlab
#
####
# Object col_RightMiddle2.obj
#
# Vertices: 36
# Faces: 68
#
####
vn -3.359466 2.304885 2.299368
v -0.027344 0.004194 0.002594
vn -3.758947 -0.543507 2.319228
v -0.028775 -0.001095 0.002624
vn 2.525445 -1.489754 2.101002
v 0.002991 -0.002959 0.005794
vn -3.327488 0.447872 -2.265537
v -0.028923 0.001079 -0.003981
vn -2.034354 -2.513161 -2.066810
v -0.026975 -0.004461 -0.004019
vn 1.436982 3.171120 4.482056
v 0.001421 0.002957 0.005781
vn -0.270181 -3.360695 -5.195332
v -0.018500 -0.003429 -0.005522
vn -1.788914 3.784665 2.532357
v -0.025012 0.005772 0.003028
vn -0.996918 2.496704 5.006124
v -0.020698 0.003786 0.005364
vn 2.605097 -2.013671 -2.748813
v 0.001954 -0.001900 -0.005265
vn -0.718632 -3.398957 4.901321
v -0.018714 -0.003829 0.005299
vn 1.098934 -3.929530 -3.738779
v -0.003395 -0.003942 -0.005194
vn 0.208019 -0.717166 -5.847763
v -0.007124 -0.001107 -0.006641
vn -0.584085 -1.276492 -5.886295
v -0.018500 -0.002100 -0.006151
vn 3.230109 0.534328 -2.640479
v 0.002517 0.000505 -0.005300
vn 0.019420 -5.508334 2.034688
v -0.010500 -0.005500 0.003509
vn -0.555888 1.217125 -5.917532
v -0.018500 0.002100 -0.006151
vn 1.772263 -4.003198 1.232525
v 0.001138 -0.005151 0.004088
vn 0.563478 5.853505 -0.710816
v -0.005625 0.006554 -0.000852
vn -0.315057 6.045732 0.617944
v -0.021769 0.006528 0.000853
vn -0.200064 3.210492 -5.315418
v -0.018500 0.003241 -0.005634
vn 2.413463 2.480581 -3.243463
v 0.001512 0.002033 -0.005311
vn 0.592131 2.887084 -5.101458
v -0.003939 0.003564 -0.005529
vn -2.289110 -3.060657 1.996464
v -0.026953 -0.004465 0.002579
vn -0.278315 -5.177141 -2.259331
v -0.018502 -0.005499 -0.003689
vn -0.420035 -5.349890 2.080863
v -0.018500 -0.005500 0.003464
vn 2.611145 0.831166 2.492348
v 0.002948 0.001166 0.006332
vn -0.790054 0.960618 5.870603
v -0.018500 0.001500 0.006325
vn -0.919375 -1.124724 5.778477
v -0.018496 -0.001520 0.006325
vn 0.016399 -1.239067 6.031288
v -0.003733 -0.001626 0.006323
vn 0.106452 -5.521631 -2.014220
v -0.010538 -0.005500 -0.003526
vn 0.484514 -5.281700 -2.358388
v -0.006193 -0.005200 -0.003900
vn 2.122693 3.758971 1.132107
v 0.000599 0.005611 0.003389
vn -1.335508 5.468805 -1.196579
v -0.024553 0.006078 -0.002374
vn 1.086511 4.995682 -2.944599
v -0.004154 0.005279 -0.003822
vn -2.088355 2.925878 -2.575844
v -0.026200 0.005123 -0.004000
# 36 vertices, 0 vertices normals

f 7//7 25//25 5//5
f 3//3 15//15 27//27
f 7//7 14//14 13//13
f 13//13 14//14 17//17
f 14//14 5//5 4//4
f 5//5 14//14 7//7
f 26//26 11//11 24//24
f 9//9 8//8 1//1
f 5//5 2//2 4//4
f 27//27 30//30 3//3
f 14//14 4//4 17//17
f 1//1 2//2 9//9
f 9//9 2//2 28//28
f 15//15 10//10 13//13
f 18//18 31//31 32//32
f 18//18 12//12 10//10
f 32//32 12//12 18//18
f 15//15 33//33 27//27
f 2//2 5//5 24//24
f 28//28 27//27 9//9
f 9//9 27//27 6//6
f 3//3 30//30 11//11
f 2//2 29//29 28//28
f 11//11 29//29 24//24
f 24//24 29//29 2//2
f 4//4 2//2 1//1
f 3//3 10//10 15//15
f 7//7 12//12 25//25
f 13//13 12//12 7//7
f 12//12 13//13 10//10
f 36//36 21//21 17//17
f 1//1 36//36 4//4
f 17//17 4//4 36//36
f 8//8 9//9 33//33
f 30//30 29//29 11//11
f 33//33 6//6 27//27
f 9//9 6//6 33//33
f 18//18 10//10 3//3
f 16//16 11//11 26//26
f 16//16 18//18 11//11
f 12//12 31//31 25//25
f 8//8 20//20 34//34
f 3//3 11//11 18//18
f 12//12 32//32 31//31
f 23//23 13//13 17//17
f 1//1 34//34 36//36
f 8//8 34//34 1//1
f 15//15 22//22 33//33
f 13//13 22//22 15//15
f 20//20 19//19 34//34
f 21//21 23//23 17//17
f 35//35 19//19 33//33
f 20//20 8//8 33//33
f 19//19 20//20 33//33
f 13//13 23//23 22//22
f 21//21 36//36 23//23
f 23//23 35//35 22//22
f 35//35 33//33 22//22
f 19//19 35//35 34//34
f 34//34 35//35 36//36
f 23//23 36//36 35//35
f 24//24 25//25 26//26
f 24//24 5//5 25//25
f 31//31 16//16 25//25
f 26//26 25//25 16//16
f 31//31 18//18 16//16
f 30//30 27//27 29//29
f 28//28 29//29 27//27
# 68 faces, 0 coords texture

# End of File
