####
#
# OBJ File Generated by Meshlab
#
####
# Object col_RightThumb2.obj
#
# Vertices: 39
# Faces: 74
#
####
vn 3.770321 -1.197651 -2.425159
v 0.026354 -0.002370 -0.002599
vn -0.093684 6.028426 -1.650788
v 0.005500 0.006244 -0.001807
vn 0.479637 6.050365 -0.401809
v 0.020687 0.006516 -0.000580
vn 0.200366 3.189907 5.330914
v 0.016500 0.003240 0.005635
vn -0.579690 3.209431 5.030464
v 0.004151 0.003760 0.005385
vn -2.769475 -1.202779 -2.445040
v -0.003023 -0.002831 -0.005815
vn 0.210942 -4.379389 4.423298
v 0.016500 -0.004581 0.004611
vn -0.018169 -5.535068 -1.994555
v 0.008500 -0.005500 -0.003508
vn -2.638171 -2.680290 -1.835303
v -0.002663 -0.003901 -0.005228
vn -1.681167 -4.280004 -1.140677
v -0.001320 -0.005119 -0.004153
vn -0.405693 6.170304 -0.221342
v 0.005500 0.006477 -0.000542
vn -2.358072 2.673073 3.345875
v -0.001467 0.002045 0.005315
vn 3.589891 1.326053 -2.251075
v 0.026466 0.002363 -0.002620
vn -0.247964 0.227901 5.974594
v 0.006520 0.000404 0.006594
vn 0.720108 -3.409782 -4.892113
v 0.016711 -0.003852 -0.005285
vn -2.527894 -2.154965 2.899682
v -0.001609 -0.002057 0.005300
vn 0.289201 -3.236923 5.300670
v 0.016500 -0.003429 0.005522
vn 0.573516 -1.275650 5.884865
v 0.016500 -0.002100 0.006151
vn 3.231297 0.795467 2.210990
v 0.026771 0.001870 0.003993
vn 0.558862 1.220440 5.916173
v 0.016500 0.002100 0.006151
vn 2.014925 3.491857 -2.355394
v 0.023214 0.005791 -0.002989
vn -2.558452 1.651605 -2.077790
v -0.003045 0.002493 -0.006064
vn 0.964163 2.548074 -5.017923
v 0.018585 0.003748 -0.005392
vn 2.196097 -3.302540 -2.120603
v 0.024931 -0.004468 -0.002575
vn 2.070155 -2.347973 1.989040
v 0.025207 -0.004433 0.003996
vn 0.418392 -5.356040 -2.072648
v 0.016500 -0.005500 -0.003464
vn -0.386388 -5.335602 2.118350
v 0.007030 -0.005475 0.003617
vn 0.289557 -5.548765 1.876451
v 0.016500 -0.005500 0.003464
vn -0.658693 5.865968 1.474079
v 0.005562 0.006320 0.001615
vn 1.225077 5.542168 1.328067
v 0.022516 0.006082 0.002366
vn 2.094832 2.975667 2.504552
v 0.024200 0.005123 0.004000
vn -1.130953 4.991339 2.959846
v 0.004130 0.005258 0.003855
vn -0.022806 -1.274459 -6.012083
v 0.003754 -0.001628 -0.006323
vn 0.935138 -1.116643 -5.771261
v 0.016497 -0.001519 -0.006325
vn -2.801852 0.248724 -3.493887
v -0.003000 0.001500 -0.006325
vn 0.830062 0.903920 -5.886563
v 0.016500 0.001500 -0.006325
vn -1.932487 4.088492 -1.143629
v -0.000384 0.005676 -0.003284
vn -3.152354 0.536858 2.585743
v -0.002492 0.000726 0.005312
vn -1.044069 -3.516474 3.852118
v 0.002864 -0.003689 0.005409
# 39 vertices, 0 vertices normals

f 24//24 15//15 34//34
f 34//34 1//1 24//24
f 21//21 3//3 30//30
f 4//4 20//20 31//31
f 6//6 15//15 9//9
f 17//17 7//7 25//25
f 17//17 25//25 18//18
f 20//20 14//14 18//18
f 1//1 34//34 13//13
f 31//31 5//5 4//4
f 4//4 5//5 20//20
f 6//6 33//33 15//15
f 34//34 36//36 13//13
f 7//7 28//28 25//25
f 39//39 7//7 17//17
f 21//21 30//30 31//31
f 31//31 32//32 5//5
f 12//12 14//14 5//5
f 33//33 34//34 15//15
f 36//36 22//22 23//23
f 27//27 39//39 10//10
f 1//1 25//25 24//24
f 25//25 19//19 18//18
f 26//26 15//15 24//24
f 26//26 8//8 15//15
f 9//9 15//15 10//10
f 9//9 38//38 6//6
f 16//16 39//39 14//14
f 3//3 2//2 11//11
f 2//2 3//3 21//21
f 21//21 37//37 2//2
f 2//2 37//37 11//11
f 12//12 32//32 37//37
f 29//29 37//37 32//32
f 29//29 32//32 30//30
f 30//30 32//32 31//31
f 11//11 29//29 3//3
f 37//37 29//29 11//11
f 3//3 29//29 30//30
f 1//1 13//13 19//19
f 18//18 19//19 20//20
f 20//20 19//19 31//31
f 12//12 5//5 32//32
f 38//38 14//14 12//12
f 36//36 35//35 22//22
f 6//6 35//35 33//33
f 7//7 27//27 28//28
f 39//39 27//27 7//7
f 10//10 15//15 8//8
f 38//38 16//16 14//14
f 38//38 9//9 16//16
f 10//10 16//16 9//9
f 39//39 16//16 10//10
f 18//18 14//14 39//39
f 23//23 22//22 37//37
f 13//13 36//36 23//23
f 12//12 37//37 38//38
f 38//38 37//37 22//22
f 19//19 21//21 31//31
f 25//25 1//1 19//19
f 18//18 39//39 17//17
f 21//21 13//13 23//23
f 19//19 13//13 21//21
f 23//23 37//37 21//21
f 20//20 5//5 14//14
f 8//8 26//26 27//27
f 28//28 27//27 26//26
f 26//26 24//24 25//25
f 28//28 26//26 25//25
f 27//27 10//10 8//8
f 33//33 35//35 34//34
f 34//34 35//35 36//36
f 6//6 22//22 35//35
f 6//6 38//38 22//22
# 74 faces, 0 coords texture

# End of File
