####
#
# OBJ File Generated by Meshlab
#
####
# Object col_RightMiddle3.obj
#
# Vertices: 120
# Faces: 236
#
####
vn 1.154708 5.941454 -1.376509
v -0.005500 0.006291 -0.001635
vn 3.277232 -1.260174 -3.144167
v 0.002310 -0.000957 -0.005300
vn 3.497860 0.002342 -3.003291
v 0.002500 0.000000 -0.005300
vn 1.275019 3.961243 4.653044
v 0.001500 0.004076 0.005063
vn 0.545851 6.177083 -0.153553
v -0.005490 0.006500 -0.000047
vn 2.139335 4.925610 0.318308
v 0.000500 0.005766 0.003000
vn 2.608633 -2.455425 -3.361496
v 0.001768 -0.001768 -0.005300
vn 2.523788 4.849285 1.690213
v 0.000938 0.005328 0.003723
vn 0.293929 2.738687 5.346364
v -0.009500 0.004900 0.006398
vn -0.416049 3.000568 5.311112
v -0.013605 0.004479 0.006490
vn 0.118001 -1.076330 6.147745
v -0.002500 -0.001500 0.006325
vn 2.735137 2.461545 -3.411139
v 0.001768 0.001768 -0.005300
vn 3.318365 1.259534 -3.109221
v 0.002310 0.000957 -0.005300
vn 2.593195 -5.160849 -0.638124
v 0.000500 -0.005200 0.003000
vn 1.626396 -3.298189 -3.661595
v 0.000928 -0.002313 -0.005316
vn 0.274652 4.395209 4.363642
v -0.009500 0.005345 0.006022
vn -0.233583 -1.725974 5.975119
v -0.012716 -0.001660 0.006242
vn -0.195829 0.484986 6.060753
v -0.013200 0.003054 0.006959
vn 2.050879 3.489089 -3.823273
v 0.000957 0.002310 -0.005300
vn 1.787680 5.025959 -2.940391
v -0.003500 0.004784 -0.004400
vn 0.409997 -6.222801 -0.050556
v -0.009000 -0.006500 0.000000
vn -5.634177 0.899898 0.134402
v -0.024456 0.003495 0.000293
vn -4.092099 3.219164 -1.462392
v -0.023619 0.005024 -0.001947
vn -2.733538 3.570989 -4.057502
v -0.021591 0.004640 -0.004331
vn 0.254342 5.101361 3.525005
v -0.009500 0.005720 0.005569
vn -5.185227 0.421222 -2.445199
v -0.023871 0.003007 -0.002896
vn -5.137493 0.395609 2.732619
v -0.023764 0.002943 0.003069
vn -4.334538 -1.420376 4.131807
v -0.022343 -0.001063 0.003968
vn -0.700381 -1.599117 5.953629
v -0.016462 -0.001621 0.006045
vn -0.630754 6.170820 0.576179
v -0.019803 0.006300 0.002295
vn -4.902791 2.475581 1.713280
v -0.023897 0.004271 0.002045
vn -0.044030 -2.350535 5.809786
v -0.008888 -0.002395 0.006047
vn -0.014246 -1.384395 6.096774
v -0.008386 -0.001436 0.006366
vn 0.223377 0.498302 -6.060604
v -0.009788 0.003291 -0.007039
vn -0.388368 4.464539 -4.137035
v -0.012947 0.005389 -0.005823
vn 0.709209 -5.930161 -1.640618
v -0.009000 -0.006279 -0.001682
vn 0.490913 -6.125517 -0.859041
v -0.009064 -0.006453 -0.000871
vn 0.119316 -6.036168 1.636930
v -0.009000 -0.006279 0.001682
vn 0.202816 -6.191378 0.760073
v -0.009119 -0.006460 0.000809
vn -0.406483 -6.194716 -0.008102
v -0.014028 -0.006420 -0.000008
vn -5.291303 -1.518674 2.653742
v -0.023195 -0.001235 0.002723
vn -5.812171 -1.491287 0.248869
v -0.023761 -0.001611 0.000541
vn -4.645218 -3.068079 -1.709889
v -0.022810 -0.003200 -0.001860
vn -3.164511 -4.041396 -3.097539
v -0.021399 -0.003866 -0.002979
vn -3.094370 -5.063187 -0.852452
v -0.021272 -0.004902 -0.000743
vn 0.584885 -3.410527 -4.949718
v -0.005196 -0.003000 -0.005766
vn -1.495232 -5.720258 -1.585557
v -0.018946 -0.005668 -0.001528
vn 0.138851 -3.406359 -5.098650
v -0.007730 -0.003374 -0.005645
vn -0.081506 -1.677803 -5.996416
v -0.009120 -0.001708 -0.006313
vn -0.508783 -3.097648 -5.337723
v -0.015251 -0.003153 -0.005516
vn -1.783175 5.114784 -1.419918
v -0.021524 0.006287 -0.002279
vn -0.239245 6.154420 -0.962848
v -0.017714 0.006300 -0.003132
vn -0.408142 -4.363920 4.380418
v -0.014462 -0.004540 0.004509
vn -0.433168 -5.978408 1.587215
v -0.014216 -0.006198 0.001651
vn -3.730542 0.964921 4.212579
v -0.022557 0.002988 0.004611
vn -0.579290 5.596136 1.963517
v -0.018150 0.006279 0.003652
vn -2.656504 4.181414 1.920757
v -0.022389 0.005806 0.002720
vn 0.651317 4.771544 -3.668295
v -0.009443 0.005598 -0.005738
vn 0.526239 2.113659 -5.765430
v -0.009500 0.004086 -0.006816
vn 0.565932 3.433522 -4.997819
v -0.009478 0.004830 -0.006454
vn -0.420970 -5.367067 3.086525
v -0.014267 -0.005550 0.003202
vn -0.003166 -5.672364 2.616005
v -0.009069 -0.005909 0.002728
vn -3.645026 -4.527278 0.897726
v -0.022000 -0.004415 0.000846
vn -3.716731 -3.428105 2.924580
v -0.022116 -0.003338 0.002916
vn -1.692457 -4.035184 4.193811
v -0.019098 -0.004132 0.004131
vn -0.890136 -3.039794 5.238405
v -0.017079 -0.003069 0.005417
vn -1.532201 -5.889376 0.044030
v -0.018985 -0.005879 -0.000006
vn -1.611686 -5.674123 1.539833
v -0.018947 -0.005671 0.001513
vn -1.599685 -5.098834 2.878369
v -0.018918 -0.005116 0.002919
vn -5.182072 -2.821211 0.906589
v -0.023268 -0.002793 0.000995
vn -1.539091 -4.070554 -4.274627
v -0.018973 -0.004095 -0.004210
vn -1.292579 -2.947502 -5.278992
v -0.018525 -0.002942 -0.005142
vn 0.547012 -5.379065 -3.063234
v -0.009000 -0.005629 -0.003250
vn -1.540308 -5.110962 -2.919320
v -0.018985 -0.005085 -0.002950
vn -0.394225 -4.375236 -4.375863
v -0.014273 -0.004526 -0.004539
vn -0.402732 -5.359300 -3.104851
v -0.014043 -0.005555 -0.003217
vn -0.443709 -5.971655 -1.606717
v -0.014214 -0.006194 -0.001667
vn -1.020267 5.016214 -3.139460
v -0.019000 0.005919 -0.004134
vn 0.221040 5.633104 2.631337
v -0.009500 0.006004 0.005064
vn 0.142107 6.199464 0.835571
v -0.009500 0.006274 0.004109
vn -0.010889 6.271022 0.003548
v -0.009000 0.006500 0.000000
vn 0.201349 6.002786 1.700653
v -0.009500 0.006185 0.004564
vn -0.342966 -1.666355 -5.985461
v -0.014427 -0.001622 -0.006187
vn -0.365020 0.256190 -6.115274
v -0.014126 0.002998 -0.006928
vn -1.098833 0.864541 -5.731299
v -0.017970 0.003034 -0.006556
vn -0.901910 -1.661634 -5.909452
v -0.017292 -0.001566 -0.005932
vn -4.237487 -1.832816 -3.917104
v -0.022300 -0.001601 -0.003881
vn -2.881176 -2.226087 -4.742022
v -0.021103 -0.002027 -0.004700
vn -5.421716 -1.401392 -2.368905
v -0.023205 -0.001163 -0.002729
vn -3.856895 0.825638 -4.197348
v -0.022562 0.002988 -0.004607
vn -1.210180 3.568218 -4.875911
v -0.018231 0.004469 -0.005766
vn -0.143296 -3.170302 5.358068
v -0.010864 -0.003314 0.005594
vn -0.120098 -4.357497 4.455425
v -0.010867 -0.004567 0.004627
vn 1.042944 -4.561598 3.816421
v 0.000996 -0.004539 0.004674
vn 1.783698 -4.785614 1.532848
v 0.000500 -0.005200 0.003900
vn -0.034132 -5.073972 3.657339
v -0.008956 -0.005241 0.003858
vn 0.330564 -4.820023 -3.887813
v -0.009028 -0.005167 -0.003950
vn 0.648660 -5.699851 -2.302779
v -0.009040 -0.006021 -0.002473
vn 0.383706 -1.675772 -5.987131
v -0.005702 -0.001871 -0.006225
vn 0.511999 -0.682639 -6.178638
v -0.005967 -0.000650 -0.006471
vn -1.080274 1.212855 5.508756
v -0.017903 0.003115 0.006577
vn -0.544080 2.548893 -5.572121
v -0.014460 0.003937 -0.006672
vn 0.375070 5.745746 -1.849173
v -0.009646 0.006209 -0.004627
vn -0.240006 5.813807 -1.955309
v -0.014938 0.006208 -0.004184
vn -2.276378 1.074744 5.069865
v -0.020717 0.003016 0.005813
vn -2.867582 -2.229294 4.721308
v -0.021112 -0.002041 0.004691
vn -1.785839 -1.678650 5.653983
v -0.019771 -0.001441 0.005413
vn -1.835182 -1.573108 -5.695234
v -0.019771 -0.001427 -0.005417
vn -2.276102 1.017704 -5.123214
v -0.020719 0.003016 -0.005813
vn -1.986447 3.887398 4.101349
v -0.020701 0.005171 0.004416
vn -0.665646 4.544841 3.992401
v -0.015395 0.005512 0.005410
vn 5.791059 1.632101 -0.188905
v 0.003000 0.002300 0.005000
vn 4.843818 3.713037 -0.638690
v 0.001500 0.004766 0.003000
vn 2.893632 3.919302 2.049681
v 0.001500 0.004766 0.004420
vn 2.155827 -3.795201 2.700011
v 0.002004 -0.003696 0.005347
vn 5.320682 -2.204090 -0.002065
v 0.003000 -0.002700 0.004850
vn 5.080786 -3.177454 -0.612789
v 0.002700 -0.003000 0.003000
vn 3.063935 1.600956 2.431501
v 0.003004 0.002281 0.006093
vn 2.957780 0.281788 3.143688
v 0.003000 0.001500 0.006325
vn 2.621160 -1.354540 2.450158
v 0.003003 -0.002552 0.005994
# 120 vertices, 0 vertices normals

f 7//7 117//117 14//14
f 19//19 20//20 6//6
f 6//6 12//12 19//19
f 6//6 113//113 12//12
f 116//116 3//3 112//112
f 9//9 18//18 119//119
f 8//8 6//6 79//79
f 8//8 114//114 113//113
f 8//8 113//113 6//6
f 6//6 1//1 5//5
f 1//1 6//6 20//20
f 1//1 103//103 5//5
f 1//1 20//20 103//103
f 115//115 95//95 14//14
f 115//115 14//14 117//117
f 13//13 3//3 34//34
f 3//3 13//13 112//112
f 13//13 113//113 112//112
f 113//113 13//13 12//12
f 99//99 100//100 7//7
f 100//100 34//34 3//3
f 2//2 7//7 100//100
f 2//2 100//100 3//3
f 2//2 117//117 7//7
f 2//2 116//116 117//117
f 2//2 3//3 116//116
f 21//21 14//14 95//95
f 4//4 118//118 114//114
f 118//118 4//4 9//9
f 118//118 9//9 119//119
f 52//52 51//51 81//81
f 64//64 28//28 41//41
f 16//16 4//4 114//114
f 4//4 16//16 9//9
f 5//5 80//80 6//6
f 6//6 82//82 79//79
f 80//80 82//82 6//6
f 18//18 33//33 11//11
f 18//18 11//11 119//119
f 58//58 20//20 19//19
f 59//59 19//19 12//12
f 59//59 60//60 19//19
f 95//95 115//115 94//94
f 15//15 99//99 7//7
f 15//15 7//7 14//14
f 46//46 99//99 15//15
f 14//14 21//21 37//37
f 26//26 23//23 90//90
f 97//97 46//46 15//15
f 100//100 49//49 34//34
f 48//48 99//99 46//46
f 78//78 51//51 52//52
f 27//27 42//42 41//41
f 27//27 41//41 28//28
f 10//10 101//101 18//18
f 107//107 66//66 29//29
f 29//29 18//18 101//101
f 25//25 16//16 114//114
f 114//114 8//8 25//25
f 25//25 8//8 79//79
f 79//79 111//111 25//25
f 9//9 16//16 10//10
f 10//10 18//18 9//9
f 120//120 11//11 33//33
f 119//119 11//11 120//120
f 120//120 33//33 32//32
f 17//17 33//33 18//18
f 34//34 59//59 12//12
f 13//13 34//34 12//12
f 62//62 95//95 96//96
f 67//67 45//45 47//47
f 37//37 21//21 40//40
f 77//77 37//37 40//40
f 14//14 37//37 36//36
f 36//36 15//15 14//14
f 15//15 36//36 98//98
f 39//39 40//40 21//21
f 47//47 45//45 74//74
f 63//63 67//67 68//68
f 45//45 67//67 63//63
f 70//70 42//42 43//43
f 23//23 31//31 57//57
f 97//97 48//48 46//46
f 73//73 97//97 15//15
f 73//73 15//15 98//98
f 72//72 86//86 50//50
f 49//49 84//84 34//34
f 5//5 52//52 81//81
f 103//103 52//52 5//5
f 22//22 27//27 31//31
f 27//27 22//22 42//42
f 106//106 28//28 64//64
f 106//106 64//64 65//65
f 101//101 105//105 107//107
f 101//101 107//107 29//29
f 107//107 106//106 66//66
f 111//111 16//16 25//25
f 111//111 10//10 16//16
f 30//30 56//56 81//81
f 17//17 18//18 29//29
f 29//29 66//66 17//17
f 60//60 58//58 19//19
f 58//58 35//35 103//103
f 58//58 103//103 20//20
f 86//86 72//72 108//108
f 88//88 44//44 87//87
f 91//91 102//102 85//85
f 32//32 17//17 92//92
f 66//66 92//92 17//17
f 92//92 66//66 53//53
f 92//92 115//115 120//120
f 61//61 96//96 53//53
f 39//39 21//21 95//95
f 63//63 70//70 43//43
f 63//63 43//43 45//45
f 22//22 23//23 26//26
f 89//89 87//87 43//43
f 86//86 83//83 50//50
f 72//72 50//50 71//71
f 71//71 50//50 75//75
f 71//71 75//75 74//74
f 74//74 77//77 47//47
f 99//99 48//48 49//49
f 23//23 57//57 51//51
f 23//23 51//51 24//24
f 51//51 78//78 24//24
f 30//30 57//57 56//56
f 51//51 30//30 81//81
f 57//57 30//30 51//51
f 111//111 56//56 110//110
f 103//103 104//104 52//52
f 89//89 42//42 26//26
f 42//42 89//89 43//43
f 42//42 22//22 26//26
f 53//53 65//65 69//69
f 65//65 53//53 66//66
f 55//55 106//106 105//105
f 106//106 55//55 28//28
f 27//27 55//55 31//31
f 55//55 57//57 31//31
f 55//55 27//27 28//28
f 33//33 17//17 32//32
f 58//58 60//60 35//35
f 59//59 34//34 102//102
f 34//34 84//84 102//102
f 102//102 35//35 60//60
f 71//71 44//44 88//88
f 44//44 71//71 74//74
f 92//92 94//94 115//115
f 93//93 96//96 94//94
f 93//93 92//92 53//53
f 53//53 96//96 93//93
f 92//92 120//120 32//32
f 69//69 63//63 68//68
f 65//65 66//66 106//106
f 47//47 77//77 67//67
f 67//67 77//77 40//40
f 77//77 36//36 37//37
f 36//36 77//77 98//98
f 38//38 39//39 95//95
f 39//39 38//38 54//54
f 38//38 95//95 62//62
f 38//38 62//62 54//54
f 39//39 54//54 40//40
f 54//54 62//62 61//61
f 54//54 67//67 40//40
f 54//54 68//68 67//67
f 68//68 54//54 69//69
f 70//70 64//64 41//41
f 41//41 42//42 70//70
f 23//23 22//22 31//31
f 44//44 43//43 87//87
f 44//44 74//74 45//45
f 44//44 45//45 43//43
f 50//50 48//48 75//75
f 75//75 48//48 97//97
f 49//49 48//48 50//50
f 49//49 50//50 83//83
f 49//49 83//83 84//84
f 78//78 52//52 104//104
f 61//61 53//53 69//69
f 54//54 61//61 69//69
f 56//56 57//57 110//110
f 57//57 55//55 105//105
f 105//105 110//110 57//57
f 56//56 79//79 82//82
f 85//85 102//102 84//84
f 84//84 83//83 86//86
f 84//84 86//86 85//85
f 108//108 109//109 85//85
f 85//85 86//86 108//108
f 60//60 59//59 102//102
f 88//88 108//108 72//72
f 88//88 72//72 71//71
f 88//88 90//90 109//109
f 24//24 90//90 23//23
f 109//109 90//90 24//24
f 96//96 61//61 62//62
f 63//63 69//69 64//64
f 64//64 69//69 65//65
f 70//70 63//63 64//64
f 76//76 97//97 73//73
f 76//76 73//73 98//98
f 76//76 74//74 75//75
f 76//76 77//77 74//74
f 75//75 97//97 76//76
f 76//76 98//98 77//77
f 104//104 35//35 78//78
f 110//110 105//105 101//101
f 56//56 111//111 79//79
f 5//5 56//56 80//80
f 81//81 56//56 5//5
f 80//80 56//56 82//82
f 91//91 85//85 109//109
f 88//88 109//109 108//108
f 90//90 88//88 87//87
f 87//87 89//89 26//26
f 87//87 26//26 90//90
f 78//78 91//91 24//24
f 94//94 92//92 93//93
f 94//94 96//96 95//95
f 100//100 99//99 49//49
f 10//10 111//111 101//101
f 35//35 91//91 78//78
f 91//91 35//35 102//102
f 103//103 35//35 104//104
f 107//107 105//105 106//106
f 24//24 91//91 109//109
f 110//110 101//101 111//111
f 118//118 113//113 114//114
f 118//118 112//112 113//113
f 115//115 116//116 120//120
f 115//115 117//117 116//116
f 120//120 116//116 112//112
f 120//120 112//112 118//118
f 120//120 118//118 119//119
# 236 faces, 0 coords texture

# End of File
