####
#
# OBJ File Generated by Meshlab
#
####
# Object col_RightMiddle1.obj
#
# Vertices: 33
# Faces: 62
#
####
vn 1.412522 5.410660 1.062339
v 0.028618 0.006232 0.002021
vn -0.437912 6.119776 -0.848513
v 0.005400 0.006421 -0.001008
vn -0.860005 5.996811 0.669207
v 0.005400 0.006480 0.000510
vn -1.287811 3.435757 -4.613750
v -0.001230 0.003518 -0.005420
vn 1.339571 2.793598 -4.396471
v 0.027500 0.004592 -0.004600
vn -0.119067 5.767188 -2.344873
v 0.005400 0.006012 -0.002472
vn -2.163664 3.813793 -1.315376
v -0.000790 0.005179 -0.003967
vn 1.892212 4.623150 -1.324118
v 0.028898 0.006355 -0.001746
vn 3.411643 1.048426 -2.027120
v 0.033468 0.002047 -0.002532
vn 0.774714 -3.527607 -4.744256
v 0.022596 -0.003635 -0.005429
vn -0.429238 -5.719375 -0.138056
v 0.008834 -0.006770 -0.000343
vn 0.293099 2.630346 -5.599864
v 0.023000 0.002631 -0.005944
vn -1.668640 -4.274766 -1.708120
v -0.001310 -0.004353 -0.004829
vn -2.651366 -1.269227 2.344130
v -0.002336 -0.001538 0.005315
vn -2.431414 -1.560973 -1.948272
v -0.003021 -0.002954 -0.005820
vn -1.180850 -4.217295 3.065260
v 0.003197 -0.004597 0.004603
vn -0.198474 -0.842766 5.732872
v 0.007840 -0.001167 0.006681
vn 0.616221 -5.339140 -1.957752
v 0.020754 -0.006031 -0.002852
vn 0.581213 -1.391259 5.811967
v 0.023000 -0.002100 0.006151
vn -0.859570 5.457595 2.273527
v 0.005249 0.005972 0.002675
vn 0.448130 -5.582962 1.873590
v 0.019746 -0.006019 0.002711
vn 0.549549 -4.073518 4.312280
v 0.023248 -0.004231 0.005018
vn 3.303825 0.475754 2.222963
v 0.033615 0.001144 0.003940
vn 0.475141 1.697303 5.635678
v 0.023140 0.002374 0.006117
vn -2.744187 1.684251 2.704192
v -0.001866 0.001804 0.005322
vn -1.257805 3.380755 3.696662
v 0.002049 0.003966 0.005284
vn 0.865903 0.792866 -5.929030
v 0.023000 0.001500 -0.006325
vn -0.018071 -1.181877 -6.053536
v 0.003666 -0.001632 -0.006324
vn 0.973275 -1.162593 -5.755844
v 0.022912 -0.001500 -0.006325
vn -2.544641 0.863524 -2.369278
v -0.003063 0.001294 -0.006333
vn 2.249455 -2.337137 2.056915
v 0.032179 -0.003436 0.003998
vn 2.564415 -2.404517 -1.916703
v 0.032252 -0.003419 -0.002572
vn 2.013070 2.986603 2.392435
v 0.030700 0.005123 0.004000
# 33 vertices, 0 vertices normals

f 4//4 5//5 12//12
f 15//15 14//14 30//30
f 32//32 18//18 10//10
f 31//31 18//18 32//32
f 1//1 8//8 3//3
f 1//1 3//3 20//20
f 3//3 8//8 2//2
f 2//2 8//8 6//6
f 9//9 5//5 8//8
f 7//7 2//2 6//6
f 3//3 2//2 7//7
f 7//7 20//20 3//3
f 7//7 8//8 5//5
f 9//9 8//8 1//1
f 9//9 1//1 33//33
f 33//33 24//24 23//23
f 13//13 15//15 10//10
f 30//30 28//28 15//15
f 27//27 12//12 5//5
f 9//9 27//27 5//5
f 27//27 9//9 29//29
f 16//16 17//17 14//14
f 19//19 24//24 17//17
f 4//4 7//7 5//5
f 30//30 7//7 4//4
f 27//27 30//30 12//12
f 8//8 7//7 6//6
f 23//23 9//9 33//33
f 24//24 33//33 26//26
f 16//16 14//14 13//13
f 11//11 16//16 13//13
f 28//28 10//10 15//15
f 28//28 29//29 10//10
f 21//21 11//11 18//18
f 32//32 29//29 9//9
f 32//32 10//10 29//29
f 18//18 13//13 10//10
f 11//11 13//13 18//18
f 24//24 19//19 23//23
f 30//30 4//4 12//12
f 26//26 17//17 24//24
f 7//7 26//26 20//20
f 25//25 30//30 14//14
f 30//30 25//25 7//7
f 17//17 25//25 14//14
f 15//15 13//13 14//14
f 11//11 21//21 16//16
f 21//21 22//22 16//16
f 19//19 22//22 31//31
f 22//22 19//19 17//17
f 16//16 22//22 17//17
f 31//31 23//23 19//19
f 23//23 31//31 32//32
f 23//23 32//32 9//9
f 20//20 33//33 1//1
f 25//25 26//26 7//7
f 21//21 31//31 22//22
f 26//26 25//25 17//17
f 18//18 31//31 21//21
f 29//29 28//28 27//27
f 27//27 28//28 30//30
f 26//26 33//33 20//20
# 62 faces, 0 coords texture

# End of File
