####
#
# OBJ File Generated by Meshlab
#
####
# Object col_RightPinky1.obj
#
# Vertices: 37
# Faces: 70
#
####
vn -1.223946 -4.575663 2.919602
v 0.003254 -0.004617 0.004614
vn 0.450114 -3.225195 5.246275
v 0.016400 -0.003186 0.005665
vn 0.661373 -4.995483 2.593090
v 0.015987 -0.005403 0.003865
vn -0.435650 -2.490580 5.515310
v 0.003959 -0.003214 0.005673
vn -2.384724 2.684640 3.370181
v -0.001506 0.002003 0.005318
vn 0.498266 6.031544 -0.439968
v 0.020587 0.006516 -0.000580
vn -0.605183 5.875643 1.487364
v 0.005481 0.006321 0.001614
vn -0.333603 6.135158 -0.407112
v 0.005400 0.006477 -0.000542
vn -0.243478 0.332160 5.983769
v 0.006521 0.000460 0.006595
vn 1.934386 3.903990 -2.391711
v 0.023118 0.005733 -0.003099
vn -1.915980 4.384152 -0.983747
v -0.000197 0.005782 -0.003151
vn 1.346959 5.468817 1.243386
v 0.022418 0.006082 0.002366
vn -0.622467 3.213255 5.018706
v 0.003783 0.003816 0.005339
vn 0.197607 3.190027 5.330419
v 0.016400 0.003241 0.005634
vn 0.619713 -1.250328 5.894319
v 0.016400 -0.002100 0.006151
vn -2.088618 -3.160223 -1.547592
v -0.002117 -0.004216 -0.004975
vn -2.637933 -2.048824 2.811927
v -0.001760 -0.001873 0.005314
vn 3.483625 2.160001 -2.257337
v 0.025527 0.003969 -0.002625
vn 0.558007 1.222664 5.915493
v 0.016400 0.002100 0.006151
vn 1.148607 2.540421 -4.817238
v 0.020900 0.004592 -0.004600
vn -0.298904 -5.731640 0.408966
v 0.009104 -0.006781 0.000586
vn 3.915803 -0.486370 -2.479020
v 0.026594 -0.001074 -0.002614
vn 3.313006 0.771928 2.311466
v 0.026713 0.001780 0.003986
vn -1.126967 3.937737 -4.264003
v -0.000803 0.004041 -0.005107
vn 0.864298 -3.390854 -4.770756
v 0.016447 -0.003510 -0.005520
vn 0.642383 -5.323063 -1.989955
v 0.014437 -0.006014 -0.002863
vn -0.042080 -1.314709 -5.988368
v 0.003611 -0.001600 -0.006324
vn 0.725831 1.415562 -5.634719
v 0.016443 0.002043 -0.006300
vn 0.959808 -1.041922 -5.801334
v 0.016400 -0.001500 -0.006325
vn -4.427244 2.597674 -0.790508
v -0.003100 0.002700 -0.005000
vn -2.462597 0.718351 -2.167970
v -0.003337 0.001670 -0.006321
vn 2.274845 -2.194773 2.020883
v 0.025679 -0.003411 0.003998
vn 2.551940 -2.799311 -2.022480
v 0.025619 -0.003425 -0.002574
vn 2.019508 3.055710 2.618309
v 0.024100 0.005123 0.004000
vn -1.189767 4.959062 2.939698
v 0.003741 0.005199 0.003935
vn -2.713654 -1.300772 -2.277408
v -0.003109 -0.002395 -0.005908
vn -3.130316 0.530979 2.552480
v -0.002544 0.000699 0.005324
# 37 vertices, 0 vertices normals

f 29//29 28//28 22//22
f 4//4 2//2 15//15
f 6//6 11//11 8//8
f 22//22 33//33 29//29
f 29//29 25//25 27//27
f 33//33 25//25 29//29
f 33//33 26//26 25//25
f 24//24 31//31 11//11
f 11//11 30//30 37//37
f 13//13 5//5 9//9
f 7//7 35//35 12//12
f 11//11 7//7 8//8
f 11//11 35//35 7//7
f 11//11 5//5 35//35
f 27//27 36//36 31//31
f 25//25 36//36 27//27
f 16//16 25//25 26//26
f 3//3 1//1 21//21
f 24//24 11//11 20//20
f 20//20 11//11 10//10
f 1//1 4//4 17//17
f 3//3 32//32 2//2
f 2//2 32//32 15//15
f 26//26 32//32 3//3
f 2//2 4//4 3//3
f 4//4 1//1 3//3
f 9//9 5//5 37//37
f 11//11 37//37 5//5
f 5//5 13//13 35//35
f 9//9 19//19 13//13
f 19//19 14//14 13//13
f 15//15 19//19 9//9
f 11//11 6//6 10//10
f 10//10 18//18 20//20
f 18//18 10//10 12//12
f 12//12 10//10 6//6
f 12//12 6//6 7//7
f 7//7 6//6 8//8
f 22//22 32//32 33//33
f 19//19 15//15 23//23
f 17//17 16//16 1//1
f 17//17 4//4 9//9
f 9//9 4//4 15//15
f 18//18 22//22 20//20
f 22//22 28//28 20//20
f 18//18 12//12 34//34
f 13//13 14//14 34//34
f 19//19 34//34 14//14
f 35//35 34//34 12//12
f 13//13 34//34 35//35
f 32//32 23//23 15//15
f 28//28 24//24 20//20
f 36//36 25//25 16//16
f 3//3 21//21 26//26
f 21//21 1//1 16//16
f 16//16 37//37 36//36
f 16//16 17//17 37//37
f 9//9 37//37 17//17
f 22//22 18//18 23//23
f 23//23 34//34 19//19
f 24//24 28//28 31//31
f 26//26 21//21 16//16
f 23//23 18//18 34//34
f 32//32 22//22 23//23
f 27//27 31//31 28//28
f 29//29 27//27 28//28
f 11//11 31//31 30//30
f 26//26 33//33 32//32
f 30//30 31//31 36//36
f 36//36 37//37 30//30
# 70 faces, 0 coords texture

# End of File
