####
#
# OBJ File Generated by Meshlab
#
####
# Object col_LeftRing1.obj
#
# Vertices: 24
# Faces: 44
#
####
vn 2.599084 2.245044 1.168996
v 0.002466 0.005337 0.001262
vn -3.482516 -1.811567 -0.881463
v -0.030853 -0.002542 -0.001877
vn -3.475882 2.672654 -0.378233
v -0.030250 0.004012 -0.000622
vn -2.339256 2.090802 2.285492
v -0.029280 0.003999 0.003411
vn -0.437428 -0.098358 5.835229
v -0.015925 -0.000487 0.006630
vn 0.488883 1.155580 5.729724
v -0.008692 0.001248 0.006553
vn -1.630376 -2.560465 -3.006752
v -0.026866 -0.003842 -0.005344
vn 0.901566 -1.809392 5.392854
v -0.006662 -0.002341 0.006045
vn 1.302131 2.814970 4.115305
v -0.003185 0.004453 0.004682
vn -0.714529 -4.950626 3.417671
v -0.019936 -0.005393 0.003629
vn -0.743121 -2.866368 5.088558
v -0.019643 -0.003787 0.005284
vn 0.823245 2.999702 -4.304888
v -0.004361 0.004011 -0.005469
vn 0.003754 -0.150819 -6.018438
v -0.012333 -0.000276 -0.006592
vn 2.662514 2.930677 -1.921097
v 0.001768 0.005302 -0.001767
vn -0.493107 5.663069 -1.485213
v -0.020400 0.006151 -0.002100
vn -0.816679 3.905586 3.004988
v -0.023010 0.005471 0.003947
vn 0.224267 5.619877 0.051173
v -0.008612 0.006877 0.000210
vn -2.586229 -1.705500 2.252099
v -0.029805 -0.002522 0.003408
vn 1.825071 -1.088640 -4.168172
v 0.000313 -0.003240 -0.005717
vn 2.238473 -2.020849 -1.174923
v 0.003289 -0.006252 -0.002395
vn 2.024238 -1.796593 1.578839
v 0.003060 -0.006104 0.002490
vn -0.970023 -5.733295 1.202351
v -0.020312 -0.006325 0.001500
vn -0.754002 -5.684000 -1.302076
v -0.020400 -0.006325 -0.001500
vn -1.800477 2.122770 -3.084847
v -0.027564 0.003729 -0.005487
# 24 vertices, 0 vertices normals

f 20//20 14//14 1//1
f 14//14 17//17 1//1
f 4//4 18//18 5//5
f 21//21 20//20 1//1
f 9//9 21//21 1//1
f 20//20 23//23 7//7
f 23//23 2//2 7//7
f 22//22 2//2 23//23
f 4//4 16//16 3//3
f 2//2 4//4 3//3
f 4//4 2//2 18//18
f 9//9 6//6 8//8
f 15//15 16//16 17//17
f 3//3 15//15 24//24
f 3//3 16//16 15//15
f 12//12 14//14 19//19
f 18//18 2//2 22//22
f 2//2 3//3 24//24
f 16//16 6//6 9//9
f 24//24 13//13 7//7
f 13//13 19//19 7//7
f 14//14 20//20 19//19
f 5//5 18//18 11//11
f 19//19 20//20 7//7
f 12//12 19//19 13//13
f 15//15 12//12 24//24
f 17//17 14//14 12//12
f 17//17 12//12 15//15
f 9//9 1//1 17//17
f 6//6 16//16 5//5
f 5//5 16//16 4//4
f 2//2 24//24 7//7
f 8//8 5//5 11//11
f 8//8 6//6 5//5
f 21//21 8//8 11//11
f 9//9 8//8 21//21
f 22//22 21//21 10//10
f 10//10 11//11 18//18
f 10//10 18//18 22//22
f 10//10 21//21 11//11
f 12//12 13//13 24//24
f 9//9 17//17 16//16
f 20//20 21//21 22//22
f 20//20 22//22 23//23
# 44 faces, 0 coords texture

# End of File
