####
#
# OBJ File Generated by Meshlab
#
####
# Object col_RightIndex3.obj
#
# Vertices: 115
# Faces: 226
#
####
vn 3.277436 1.260299 3.144136
v 0.002310 0.000957 0.005300
vn 3.498444 -0.002066 3.003218
v 0.002500 -0.000000 0.005300
vn 2.607113 2.457514 3.359557
v 0.001768 0.001768 0.005300
vn 1.319857 -5.936106 1.354876
v -0.005500 -0.006291 0.001635
vn 1.316815 -3.970825 -4.640343
v 0.001500 -0.004076 -0.005063
vn 0.479442 0.695304 6.175582
v -0.005966 0.000641 0.006472
vn 2.592495 5.160909 0.638422
v 0.000500 0.005200 -0.003000
vn 0.624014 -6.188438 0.207342
v -0.005502 -0.006500 0.000062
vn 2.572206 -4.859468 -1.664983
v 0.000938 -0.005328 -0.003723
vn 0.318674 -2.732520 -5.338897
v -0.009500 -0.005100 -0.006398
vn 1.616552 3.283608 3.669486
v 0.000917 0.002314 0.005320
vn -4.233160 4.156973 -0.449496
v -0.022353 0.004104 -0.000442
vn 2.181618 -4.936668 -0.287909
v 0.000500 -0.005766 -0.003000
vn -4.132311 3.170433 -2.829365
v -0.022401 0.003031 -0.002817
vn -5.326045 1.381273 -2.718560
v -0.023190 0.001215 -0.002743
vn 0.422851 -4.278935 -4.490473
v -0.009500 -0.005545 -0.006022
vn -0.445517 -3.135654 -5.169553
v -0.013605 -0.004679 -0.006490
vn 0.117310 1.053703 -6.153427
v -0.002500 0.001500 -0.006325
vn -0.197696 -0.500665 -6.063248
v -0.013197 -0.003251 -0.006959
vn -0.207336 1.658159 -5.998494
v -0.012484 0.001658 -0.006251
vn -0.739234 1.660637 -5.915950
v -0.016463 0.001621 -0.006045
vn -1.782929 -5.165850 1.859495
v -0.021357 -0.006256 0.002816
vn -1.994471 4.931940 3.039015
v -0.019759 0.004865 0.002787
vn 2.742438 -2.465866 3.409511
v 0.001768 -0.001768 0.005300
vn 3.320820 -1.259568 3.108885
v 0.002310 -0.000957 0.005300
vn 0.545812 -2.117270 5.759155
v -0.009500 -0.004286 0.006816
vn 0.340684 1.683083 5.982013
v -0.005701 0.001871 0.006225
vn 0.569292 5.341243 2.995592
v -0.009000 0.005629 0.003250
vn 0.623607 5.881806 1.623940
v -0.009017 0.006281 0.001688
vn -3.194144 -3.541603 3.204879
v -0.022348 -0.005231 0.003613
vn 0.074204 -4.890417 -3.656830
v -0.009831 -0.005895 -0.005688
vn -3.782913 -3.740422 -1.610590
v -0.023191 -0.005611 -0.001866
vn -0.501249 3.127847 -5.321345
v -0.015251 0.003167 -0.005507
vn -0.991917 -0.898682 -5.750354
v -0.017873 -0.003249 -0.006572
vn -2.940468 -1.391864 -4.366014
v -0.021777 -0.003462 -0.005277
vn -5.686047 -0.771414 -0.172236
v -0.024463 -0.003606 -0.000026
vn -0.698907 5.329373 3.028968
v -0.016633 0.005386 0.003139
vn 0.557947 3.430244 4.922709
v -0.005196 0.003000 0.005766
vn -2.716125 5.234172 -0.671693
v -0.020904 0.005159 -0.000634
vn -2.631297 4.468849 -2.879861
v -0.020720 0.004403 -0.002951
vn -4.304338 3.492373 2.043726
v -0.022438 0.003550 0.002022
vn -3.102491 4.829685 1.809307
v -0.021305 0.004605 0.001791
vn -2.800445 3.270652 4.131771
v -0.020997 0.003124 0.004090
vn -0.426664 -5.648058 2.303753
v -0.016352 -0.006368 0.004122
vn 0.597738 -3.510631 4.896750
v -0.009479 -0.005030 0.006454
vn 1.874448 -5.088171 2.848388
v -0.003500 -0.004784 0.004400
vn 2.075379 -3.518212 3.810216
v 0.000957 -0.002310 0.005300
vn -0.375783 5.970961 1.604917
v -0.014154 0.006198 0.001671
vn -0.220374 4.358973 4.411607
v -0.012618 0.004567 0.004588
vn -0.296765 6.174630 -0.143861
v -0.012851 0.006466 0.000015
vn 0.450510 6.166453 0.132384
v -0.009013 0.006502 0.000005
vn -0.599384 1.647061 5.957933
v -0.015687 0.001630 0.006098
vn -0.558129 -2.528928 5.573983
v -0.014460 -0.004137 0.006672
vn -0.351253 -0.256989 6.124928
v -0.014006 -0.003180 0.006934
vn -1.098770 -1.000806 5.671886
v -0.017970 -0.003235 0.006556
vn 0.366565 -5.653708 -2.574465
v -0.009500 -0.006204 -0.005064
vn 0.756343 -5.014481 3.103268
v -0.009336 -0.006042 0.005413
vn -5.352180 2.235201 -0.946198
v -0.023521 0.002339 -0.001066
vn -4.784237 -0.826100 -2.725724
v -0.023702 -0.003283 -0.003268
vn -4.334386 1.372617 -4.157645
v -0.022343 0.001063 -0.003968
vn -4.539830 -3.061993 1.107434
v -0.023884 -0.005011 0.001263
vn -2.207211 -5.462380 0.353589
v -0.022233 -0.006343 0.000416
vn -0.039271 1.639750 -6.006189
v -0.009175 0.001734 -0.006292
vn -0.110601 3.122909 -5.377167
v -0.010528 0.003189 -0.005671
vn 1.780968 4.779232 -1.540899
v 0.000500 0.005200 -0.003900
vn -1.275453 2.960514 -5.263179
v -0.018525 0.002956 -0.005135
vn -1.551890 4.179634 -4.125601
v -0.019098 0.004132 -0.004131
vn -1.480601 -3.262831 -5.024751
v -0.018981 -0.004209 -0.005871
vn -1.931905 -0.786432 -5.537125
v -0.020178 -0.003199 -0.005985
vn -2.913906 2.181317 -4.721165
v -0.021119 0.002022 -0.004698
vn -1.825634 1.531413 -5.693803
v -0.019772 0.001442 -0.005413
vn -1.092719 4.272426 4.272925
v -0.017787 0.004302 0.004320
vn -0.474369 3.111172 5.331511
v -0.015251 0.003153 0.005516
vn 0.275858 4.462534 4.292310
v -0.009000 0.004596 0.004596
vn -0.044077 3.086057 5.395611
v -0.009737 0.003198 0.005680
vn -0.150548 5.387089 3.096585
v -0.012045 0.005607 0.003253
vn -1.535195 5.717985 1.456672
v -0.018946 0.005668 0.001528
vn -1.710210 1.671169 5.648762
v -0.019358 0.001477 0.005556
vn -1.344776 2.973057 5.236348
v -0.018525 0.002942 0.005142
vn -5.374831 2.137461 0.971475
v -0.023601 0.002118 0.001015
vn -5.245656 1.602794 2.693234
v -0.023201 0.001137 0.002749
vn -0.400511 -4.437924 4.183403
v -0.012947 -0.005589 0.005823
vn -3.036594 1.514088 5.150452
v -0.021259 0.001264 0.004766
vn -3.864851 -0.772438 4.273382
v -0.022560 -0.003187 0.004608
vn -5.142768 -0.533849 2.613078
v -0.023760 -0.003142 0.003075
vn -4.234438 1.846085 3.877832
v -0.022303 0.001582 0.003889
vn -0.027571 4.386976 -4.397707
v -0.005882 0.004633 -0.004629
vn -0.132469 5.398718 -3.059838
v -0.010660 0.005687 -0.003172
vn 0.019543 6.015020 -1.449394
v -0.009948 0.006376 -0.001496
vn -1.180619 -4.098082 4.279160
v -0.018373 -0.005309 0.005279
vn 0.232469 -0.514472 6.059623
v -0.009785 -0.003496 0.007039
vn -0.154496 1.671423 5.995051
v -0.011720 0.001664 0.006272
vn -1.805944 -4.903353 -2.239499
v -0.021357 -0.006256 -0.002816
vn -1.126402 -4.557376 -3.882039
v -0.018322 -0.005666 -0.004865
vn 2.135127 4.283318 -2.366964
v 0.001169 0.004531 -0.004660
vn -0.706303 5.281685 -3.068565
v -0.016639 0.005395 -0.003131
vn -0.346220 4.408239 -4.336380
v -0.014285 0.004535 -0.004530
vn -2.261845 -1.094316 5.105441
v -0.020718 -0.003216 0.005813
vn 0.194566 -6.196624 -0.703323
v -0.009500 -0.006474 -0.004109
vn 0.268927 -5.995694 -1.697351
v -0.009500 -0.006385 -0.004564
vn -1.117100 5.783138 -1.664086
v -0.017841 0.005872 -0.001595
vn -0.966107 6.070616 0.022144
v -0.017675 0.006104 -0.000018
vn 5.791142 -1.631905 0.188940
v 0.003000 -0.002300 -0.005000
vn 4.843814 -3.713044 0.638703
v 0.001500 -0.004766 -0.003000
vn 2.927787 -3.921715 -2.042449
v 0.001500 -0.004766 -0.004420
vn 2.159043 3.792526 -2.701688
v 0.002004 0.003696 -0.005347
vn 5.319822 2.204647 -0.000567
v 0.003000 0.002700 -0.004850
vn 2.623325 1.352328 -2.453454
v 0.003003 0.002548 -0.005995
vn 5.080786 3.177454 0.612789
v 0.002700 0.003000 -0.003000
vn 2.963042 -0.277375 -3.143628
v 0.003000 -0.001500 -0.006325
vn 3.079145 -1.601933 -2.430616
v 0.003004 -0.002281 -0.006093
vn -0.508664 -6.220814 -0.252742
v -0.020670 -0.006500 -0.001115
vn -0.339549 -6.127428 0.903681
v -0.018140 -0.006500 0.003100
vn -0.304431 -5.774447 -1.706757
v -0.016505 -0.006475 -0.003849
vn 0.393162 -6.001465 1.183309
v -0.009649 -0.006499 0.004140
# 115 vertices, 0 vertices normals

f 3//3 109//109 7//7
f 13//13 47//47 46//46
f 13//13 24//24 47//47
f 13//13 104//104 24//24
f 107//107 2//2 103//103
f 11//11 3//3 7//7
f 7//7 29//29 11//11
f 10//10 19//19 110//110
f 9//9 13//13 56//56
f 9//9 105//105 104//104
f 13//13 9//9 104//104
f 110//110 18//18 108//108
f 63//63 108//108 18//18
f 21//21 34//34 71//71
f 28//28 11//11 29//29
f 106//106 7//7 109//109
f 25//25 2//2 91//91
f 103//103 2//2 25//25
f 25//25 104//104 103//103
f 24//24 104//104 25//25
f 6//6 91//91 2//2
f 1//1 3//3 6//6
f 1//1 6//6 2//2
f 1//1 109//109 3//3
f 1//1 107//107 109//109
f 1//1 2//2 107//107
f 51//51 29//29 7//7
f 27//27 6//6 3//3
f 27//27 3//3 11//11
f 27//27 11//11 38//38
f 5//5 111//111 105//105
f 111//111 5//5 10//10
f 111//111 10//10 110//110
f 4//4 13//13 46//46
f 4//4 46//46 57//57
f 57//57 115//115 4//4
f 13//13 4//4 8//8
f 4//4 115//115 8//8
f 40//40 14//14 39//39
f 14//14 70//70 60//60
f 14//14 60//60 15//15
f 16//16 5//5 105//105
f 5//5 16//16 10//10
f 19//19 18//18 110//110
f 33//33 21//21 66//66
f 75//75 27//27 38//38
f 42//42 12//12 41//41
f 91//91 6//6 92//92
f 6//6 27//27 92//92
f 65//65 51//51 7//7
f 106//106 65//65 7//7
f 65//65 106//106 95//95
f 99//99 13//13 8//8
f 41//41 58//58 80//80
f 12//12 58//58 41//41
f 59//59 15//15 60//60
f 31//31 17//17 16//16
f 31//31 16//16 105//105
f 105//105 9//9 31//31
f 31//31 9//9 56//56
f 94//94 17//17 31//31
f 10//10 16//16 17//17
f 17//17 19//19 10//10
f 62//62 61//61 32//32
f 44//44 22//22 113//113
f 63//63 18//18 19//19
f 64//64 106//106 108//108
f 30//30 22//22 90//90
f 11//11 28//28 74//74
f 11//11 74//74 38//38
f 39//39 14//14 12//12
f 58//58 12//12 14//14
f 42//42 39//39 12//12
f 23//23 77//77 42//42
f 43//43 23//23 42//42
f 26//26 47//47 24//24
f 26//26 45//45 47//47
f 92//92 27//27 75//75
f 51//51 65//65 89//89
f 80//80 36//36 85//85
f 30//30 85//85 61//61
f 13//13 100//100 56//56
f 99//99 100//100 13//13
f 94//94 114//114 93//93
f 15//15 58//58 14//14
f 14//14 40//40 70//70
f 58//58 15//15 59//59
f 56//56 114//114 31//31
f 114//114 94//94 31//31
f 17//17 34//34 19//19
f 21//21 19//19 34//34
f 40//40 96//96 67//67
f 33//33 20//20 21//21
f 21//21 20//20 19//19
f 20//20 63//63 19//19
f 66//66 70//70 67//67
f 66//66 21//21 71//71
f 71//71 70//70 66//66
f 70//70 40//40 67//67
f 34//34 69//69 71//71
f 35//35 68//68 94//94
f 90//90 22//22 44//44
f 37//37 76//76 48//48
f 48//48 77//77 37//37
f 50//50 102//102 48//48
f 48//48 102//102 77//77
f 76//76 74//74 28//28
f 75//75 49//49 73//73
f 75//75 73//73 92//92
f 38//38 74//74 75//75
f 39//39 42//42 77//77
f 78//78 52//52 79//79
f 52//52 73//73 79//79
f 79//79 73//73 72//72
f 72//72 37//37 23//23
f 23//23 37//37 77//77
f 43//43 72//72 23//23
f 43//43 41//41 86//86
f 83//83 43//43 86//86
f 86//86 41//41 80//80
f 91//91 26//26 24//24
f 24//24 25//25 91//91
f 91//91 53//53 26//26
f 45//45 26//26 53//53
f 82//82 44//44 57//57
f 82//82 53//53 90//90
f 98//98 30//30 90//90
f 29//29 76//76 28//28
f 29//29 51//51 50//50
f 30//30 62//62 22//22
f 30//30 61//61 62//62
f 53//53 55//55 90//90
f 55//55 78//78 98//98
f 114//114 56//56 100//100
f 36//36 58//58 59//59
f 60//60 70//70 35//35
f 32//32 35//35 93//93
f 62//62 32//32 93//93
f 64//64 20//20 33//33
f 64//64 87//87 106//106
f 97//97 64//64 33//33
f 68//68 69//69 34//34
f 68//68 17//17 94//94
f 17//17 68//68 34//34
f 94//94 93//93 35//35
f 61//61 85//85 36//36
f 49//49 76//76 37//37
f 49//49 37//37 72//72
f 101//101 40//40 39//39
f 101//101 96//96 40//40
f 41//41 43//43 42//42
f 81//81 85//85 86//86
f 82//82 45//45 53//53
f 57//57 45//45 82//82
f 57//57 46//46 47//47
f 45//45 57//57 47//47
f 84//84 83//83 86//86
f 50//50 48//48 29//29
f 29//29 48//48 76//76
f 88//88 89//89 65//65
f 88//88 65//65 87//87
f 89//89 50//50 51//51
f 113//113 115//115 44//44
f 54//54 92//92 52//52
f 55//55 54//54 52//52
f 55//55 52//52 78//78
f 53//53 54//54 55//55
f 44//44 115//115 57//57
f 80//80 58//58 36//36
f 60//60 35//35 59//59
f 35//35 32//32 59//59
f 36//36 32//32 61//61
f 62//62 112//112 113//113
f 112//112 62//62 93//93
f 63//63 64//64 108//108
f 20//20 64//64 63//63
f 87//87 65//65 95//95
f 87//87 64//64 97//97
f 67//67 97//97 33//33
f 33//33 66//66 67//67
f 97//97 67//67 96//96
f 69//69 68//68 35//35
f 35//35 70//70 71//71
f 35//35 71//71 69//69
f 82//82 90//90 44//44
f 73//73 49//49 72//72
f 52//52 92//92 73//73
f 49//49 75//75 74//74
f 74//74 76//76 49//49
f 102//102 101//101 39//39
f 102//102 39//39 77//77
f 72//72 43//43 79//79
f 78//78 79//79 43//43
f 78//78 43//43 83//83
f 83//83 98//98 78//78
f 86//86 80//80 81//81
f 81//81 80//80 85//85
f 98//98 84//84 30//30
f 84//84 98//98 83//83
f 84//84 85//85 30//30
f 84//84 86//86 85//85
f 53//53 91//91 54//54
f 91//91 92//92 54//54
f 59//59 32//32 36//36
f 22//22 62//62 113//113
f 112//112 93//93 114//114
f 89//89 102//102 50//50
f 97//97 88//88 87//87
f 99//99 114//114 100//100
f 95//95 106//106 87//87
f 102//102 89//89 101//101
f 96//96 101//101 89//89
f 88//88 96//96 89//89
f 88//88 97//97 96//96
f 90//90 55//55 98//98
f 111//111 104//104 105//105
f 111//111 103//103 104//104
f 106//106 107//107 108//108
f 106//106 109//109 107//107
f 108//108 107//107 103//103
f 108//108 103//103 111//111
f 108//108 111//111 110//110
f 8//8 114//114 99//99
f 113//113 112//112 8//8
f 8//8 112//112 114//114
f 113//113 8//8 115//115
# 226 faces, 0 coords texture

# End of File
