####
#
# OBJ File Generated by Meshlab
#
####
# Object col_LeftIndex2.obj
#
# Vertices: 28
# Faces: 52
#
####
vn -2.326577 -2.422711 -1.907802
v -0.025128 -0.004419 -0.002718
vn -3.281865 0.039307 2.067256
v -0.027179 0.000106 0.003956
vn 3.299274 0.031132 2.742848
v 0.002500 -0.000000 0.005300
vn -0.492004 -2.084517 5.337465
v -0.016825 -0.002822 0.006050
vn 0.439943 -1.871468 5.605906
v -0.005986 -0.001832 0.006346
vn 0.155941 1.127180 5.922025
v -0.007238 0.001380 0.006537
vn -3.373014 1.381500 -2.121690
v -0.026332 0.003009 -0.002616
vn -1.847320 4.387870 -1.770928
v -0.022652 0.006166 -0.002377
vn 2.354491 -1.580101 -1.920645
v 0.003013 -0.003293 -0.005656
vn 2.444948 -2.284278 3.012204
v 0.001765 -0.001770 0.005304
vn 0.444211 6.088892 -0.171364
v -0.005500 0.006477 -0.000542
vn -1.320714 5.453788 0.968902
v -0.022106 0.006309 0.001851
vn 1.556135 -4.363959 -1.195114
v 0.000655 -0.005259 -0.003976
vn 2.282428 1.059532 -2.164231
v 0.003118 0.002250 -0.006284
vn 0.721805 5.549687 2.084097
v -0.005535 0.006068 0.002483
vn 2.661938 2.139483 3.050004
v 0.001768 0.001767 0.005305
vn -1.153774 2.791587 -4.728710
v -0.020500 0.004592 -0.004600
vn 1.236107 3.704035 3.779425
v -0.002695 0.004099 0.005189
vn -0.505035 1.521910 5.728063
v -0.016500 0.002100 0.006151
vn -0.346086 -2.188736 -5.315671
v -0.014940 -0.002577 -0.006334
vn -0.805379 1.164710 -5.759914
v -0.016500 0.001500 -0.006325
vn -1.235995 -0.811347 -5.863803
v -0.016500 -0.001500 -0.006325
vn -0.463336 -5.134942 -2.266246
v -0.016500 -0.005500 -0.003464
vn -0.275748 -5.299605 2.141311
v -0.016500 -0.005500 0.003464
vn 1.912905 3.865433 -1.242339
v 0.000590 0.005631 -0.003671
vn -1.999972 -2.691026 2.107256
v -0.024946 -0.004467 0.004000
vn 0.537300 -4.873766 2.450303
v -0.006501 -0.005460 0.003734
vn -2.077253 2.853084 2.480124
v -0.024200 0.005123 0.004000
# 28 vertices, 0 vertices normals

f 19//19 4//4 6//6
f 4//4 19//19 2//2
f 7//7 8//8 17//17
f 4//4 2//2 26//26
f 17//17 14//14 21//21
f 19//19 28//28 2//2
f 22//22 7//7 21//21
f 1//1 7//7 22//22
f 21//21 7//7 17//17
f 4//4 26//26 24//24
f 2//2 7//7 1//1
f 28//28 7//7 2//2
f 8//8 7//7 12//12
f 28//28 12//12 7//7
f 14//14 17//17 25//25
f 11//11 25//25 8//8
f 14//14 25//25 16//16
f 14//14 3//3 9//9
f 14//14 16//16 3//3
f 5//5 10//10 3//3
f 3//3 6//6 5//5
f 6//6 3//3 16//16
f 20//20 14//14 9//9
f 3//3 10//10 9//9
f 13//13 9//9 10//10
f 10//10 27//27 13//13
f 4//4 5//5 6//6
f 8//8 12//12 11//11
f 25//25 18//18 16//16
f 23//23 20//20 13//13
f 10//10 5//5 27//27
f 27//27 5//5 4//4
f 4//4 24//24 27//27
f 11//11 15//15 25//25
f 15//15 18//18 25//25
f 12//12 15//15 11//11
f 16//16 18//18 6//6
f 20//20 1//1 22//22
f 1//1 20//20 23//23
f 13//13 20//20 9//9
f 17//17 8//8 25//25
f 28//28 15//15 12//12
f 19//19 18//18 28//28
f 6//6 18//18 19//19
f 26//26 2//2 1//1
f 14//14 20//20 21//21
f 21//21 20//20 22//22
f 24//24 23//23 27//27
f 13//13 27//27 23//23
f 24//24 1//1 23//23
f 24//24 26//26 1//1
f 18//18 15//15 28//28
# 52 faces, 0 coords texture

# End of File
