####
#
# OBJ File Generated by Meshlab
#
####
# Object col_LeftThumb0.obj
#
# Vertices: 14
# Faces: 24
#
####
vn 2.238705 -2.237188 1.422206
v 0.025336 -0.009684 0.003651
vn 0.068373 -1.640613 -5.170454
v 0.013590 -0.007375 -0.006688
vn 1.311316 0.164801 5.216809
v 0.021546 -0.004810 0.006507
vn -1.847418 1.775589 -1.697434
v -0.003528 0.004361 -0.004882
vn -1.569028 1.254947 1.409768
v -0.004072 0.004463 0.005180
vn -2.286484 -1.601883 -1.734165
v -0.003583 -0.003759 -0.004921
vn 2.832201 1.721483 1.336128
v 0.026214 -0.001775 0.003425
vn 2.633086 1.917483 -2.214294
v 0.024889 -0.001608 -0.003380
vn 2.276497 -1.993136 -1.956185
v 0.024884 -0.009199 -0.003383
vn -0.425435 -3.773301 2.674825
v 0.015615 -0.010201 0.004901
vn -0.221175 -4.528808 -2.358442
v 0.015588 -0.010196 -0.004604
vn 0.336141 2.867293 -2.792744
v 0.006844 0.004658 -0.006258
vn 0.450769 3.377918 2.752085
v 0.006765 0.004749 0.004916
vn -1.890532 -2.069606 2.573622
v -0.000889 -0.004484 0.005563
# 14 vertices, 0 vertices normals

f 7//7 12//12 13//13
f 7//7 8//8 12//12
f 9//9 7//7 1//1
f 8//8 7//7 9//9
f 9//9 1//1 11//11
f 6//6 12//12 2//2
f 4//4 12//12 6//6
f 6//6 10//10 14//14
f 8//8 2//2 12//12
f 14//14 3//3 13//13
f 13//13 3//3 7//7
f 11//11 6//6 2//2
f 11//11 2//2 9//9
f 3//3 1//1 7//7
f 3//3 10//10 1//1
f 10//10 3//3 14//14
f 14//14 13//13 5//5
f 5//5 6//6 14//14
f 5//5 4//4 6//6
f 9//9 2//2 8//8
f 1//1 10//10 11//11
f 12//12 4//4 5//5
f 5//5 13//13 12//12
f 11//11 10//10 6//6
# 24 faces, 0 coords texture

# End of File
