####
#
# OBJ File Generated by Meshlab
#
####
# Object col_LeftMiddle3.obj
#
# Vertices: 52
# Faces: 100
#
####
vn 0.924112 5.979022 0.718047
v -0.004888 0.006490 0.000379
vn 2.593917 -5.158794 0.640082
v 0.000500 -0.005200 -0.003000
vn 1.852402 -3.220513 3.445033
v 0.001077 -0.002287 0.005321
vn 2.718773 3.896001 -2.230633
v 0.001534 0.004699 -0.004566
vn 3.468917 -0.381843 2.929032
v 0.002500 -0.000345 0.005300
vn 2.847022 -1.869689 3.220754
v 0.002039 -0.001437 0.005353
vn 1.742844 -4.677747 -1.651243
v 0.000500 -0.005200 -0.003900
vn 0.331774 -5.766160 1.578364
v -0.009580 -0.006370 0.001873
vn 2.169576 4.884522 -0.389420
v 0.000500 0.005766 -0.003000
vn -3.923000 -1.895692 -3.613846
v -0.022281 -0.001678 -0.004024
vn -0.949305 1.072073 -5.630708
v -0.017230 0.003198 -0.006693
vn 3.350591 1.067066 3.001543
v 0.002378 0.000772 0.005300
vn 2.525190 2.517392 3.354375
v 0.001551 0.001991 0.005337
vn -1.712617 -2.416808 -4.988782
v -0.019404 -0.002156 -0.005473
vn 0.299968 -1.237072 6.043371
v -0.006470 -0.001353 0.006416
vn -4.317178 -2.577543 0.109434
v -0.023586 -0.003173 0.000108
vn -2.260074 -1.884331 5.204745
v -0.020455 -0.001500 0.005196
vn 0.572535 -3.167369 5.023275
v -0.004921 -0.002887 0.005842
vn -0.540819 -2.495658 -5.386537
v -0.015488 -0.002343 -0.006030
vn 0.239618 2.856859 -5.214055
v -0.009797 0.005170 -0.006403
vn -0.215098 0.695660 -5.985873
v -0.013127 0.003266 -0.006958
vn 1.877194 5.084498 2.843082
v -0.003500 0.004784 0.004400
vn -2.466619 4.096665 -1.605679
v -0.022557 0.006044 -0.002523
vn -1.744802 1.217924 5.174623
v -0.019495 0.003196 0.006247
vn -4.522694 1.290659 -0.600771
v -0.024648 0.003959 -0.001212
vn -0.589652 1.701316 5.220793
v -0.014513 0.003985 0.007021
vn -0.023741 -5.043334 -3.425399
v -0.007801 -0.005277 -0.003938
vn 0.153132 -6.023151 -0.628933
v -0.009176 -0.006524 -0.000604
vn -3.460998 -2.503087 3.164739
v -0.022278 -0.002642 0.003708
vn -0.961490 -2.427647 5.309683
v -0.016963 -0.002222 0.005921
vn -1.555197 -4.904347 1.941697
v -0.018991 -0.005596 0.002251
vn -0.534689 -4.920130 3.553027
v -0.014515 -0.005339 0.003613
vn 0.448250 4.581602 2.958593
v -0.009964 0.006108 0.005671
vn -3.914801 1.006238 3.133258
v -0.023093 0.003249 0.004226
vn 2.079038 -3.927220 -2.625200
v 0.001818 -0.003882 -0.005230
vn -2.587554 -4.393848 -1.858951
v -0.021121 -0.004821 -0.002103
vn 0.365561 -4.816819 3.719832
v -0.009375 -0.005261 0.003916
vn -0.347858 -3.296612 5.155716
v -0.014092 -0.003261 0.005582
vn -0.546658 4.653115 -2.854287
v -0.015963 0.006114 -0.005137
vn 0.385178 1.350585 5.616538
v -0.010150 0.003894 0.007087
vn -0.833389 -5.108672 -2.293221
v -0.016920 -0.005774 -0.002714
vn 0.072573 -1.466974 -6.003100
v -0.002327 -0.001813 -0.006296
vn -0.176404 -3.624821 -5.008021
v -0.010576 -0.003636 -0.005405
vn 0.381231 4.926409 -3.543397
v -0.009590 0.005857 -0.005734
vn -2.688706 1.284218 -4.186173
v -0.021665 0.003546 -0.005476
vn 4.830582 3.726812 0.636001
v 0.001500 0.004766 -0.003000
vn 3.128454 1.698902 -2.183380
v 0.003047 0.002450 -0.005972
vn 2.541455 -1.394208 -2.200636
v 0.003056 -0.002644 -0.005976
vn 5.128041 -2.996546 0.570272
v 0.002700 -0.003000 -0.003000
vn 2.893281 0.374095 -3.498718
v 0.003000 0.001500 -0.006325
vn 0.106776 5.950697 -1.175518
v -0.009527 0.006456 -0.004359
vn -1.900455 4.179204 1.802157
v -0.021290 0.006498 0.003105
# 52 vertices, 0 vertices normals

f 49//49 6//6 2//2
f 46//46 12//12 47//47
f 1//1 22//22 9//9
f 22//22 13//13 9//9
f 4//4 9//9 46//46
f 13//13 12//12 46//46
f 9//9 13//13 46//46
f 15//15 6//6 40//40
f 8//8 2//2 3//3
f 47//47 20//20 4//4
f 1//1 33//33 22//22
f 36//36 10//10 14//14
f 2//2 35//35 49//49
f 7//7 35//35 2//2
f 49//49 5//5 6//6
f 2//2 28//28 7//7
f 8//8 28//28 2//2
f 15//15 3//3 6//6
f 6//6 3//3 2//2
f 18//18 3//3 15//15
f 18//18 37//37 3//3
f 3//3 37//37 8//8
f 35//35 43//43 48//48
f 20//20 47//47 50//50
f 21//21 20//20 50//50
f 20//20 44//44 4//4
f 25//25 10//10 16//16
f 4//4 44//44 9//9
f 45//45 14//14 10//10
f 9//9 51//51 1//1
f 48//48 5//5 49//49
f 12//12 40//40 5//5
f 6//6 5//5 40//40
f 12//12 5//5 47//47
f 48//48 47//47 5//5
f 42//42 21//21 50//50
f 19//19 21//21 42//42
f 19//19 11//11 21//21
f 11//11 14//14 45//45
f 24//24 34//34 17//17
f 52//52 34//34 24//24
f 34//34 29//29 17//17
f 29//29 34//34 16//16
f 26//26 40//40 33//33
f 33//33 40//40 13//13
f 30//30 24//24 17//17
f 7//7 27//27 35//35
f 27//27 7//7 28//28
f 37//37 32//32 8//8
f 8//8 32//32 31//31
f 15//15 30//30 38//38
f 26//26 30//30 15//15
f 42//42 50//50 48//48
f 22//22 33//33 13//13
f 44//44 51//51 9//9
f 16//16 10//10 36//36
f 11//11 45//45 39//39
f 16//16 34//34 25//25
f 13//13 40//40 12//12
f 41//41 14//14 19//19
f 28//28 41//41 27//27
f 30//30 17//17 29//29
f 38//38 30//30 32//32
f 18//18 15//15 38//38
f 35//35 27//27 43//43
f 19//19 42//42 43//43
f 11//11 19//19 14//14
f 21//21 11//11 20//20
f 39//39 20//20 11//11
f 36//36 31//31 16//16
f 39//39 45//45 23//23
f 52//52 39//39 23//23
f 25//25 34//34 52//52
f 23//23 25//25 52//52
f 40//40 26//26 15//15
f 26//26 24//24 30//30
f 52//52 24//24 26//26
f 36//36 14//14 41//41
f 41//41 31//31 36//36
f 16//16 31//31 29//29
f 31//31 30//30 29//29
f 30//30 31//31 32//32
f 32//32 37//37 38//38
f 43//43 42//42 48//48
f 52//52 26//26 33//33
f 1//1 52//52 33//33
f 43//43 27//27 41//41
f 28//28 8//8 41//41
f 31//31 41//41 8//8
f 38//38 37//37 18//18
f 44//44 20//20 39//39
f 19//19 43//43 41//41
f 39//39 51//51 44//44
f 45//45 25//25 23//23
f 45//45 10//10 25//25
f 46//46 47//47 4//4
f 35//35 48//48 49//49
f 47//47 48//48 50//50
f 52//52 1//1 39//39
f 39//39 1//1 51//51
# 100 faces, 0 coords texture

# End of File
