####
#
# OBJ File Generated by Meshlab
#
####
# Object col_RightPinky3.obj
#
# Vertices: 129
# Faces: 254
#
####
vn 3.319268 -1.259259 3.109112
v 0.002310 -0.000957 0.005300 0.898039 0.898039 0.898039
vn 0.337533 0.063902 6.195896
v -0.009500 -0.003200 0.007000 0.898039 0.898039 0.898039
vn 3.277438 1.260298 3.144136
v 0.002310 0.000957 0.005300 0.898039 0.898039 0.898039
vn 3.498131 -0.002355 3.003256
v 0.002500 -0.000000 0.005300 0.898039 0.898039 0.898039
vn 2.608521 2.456020 3.360839
v 0.001768 0.001768 0.005300 0.898039 0.898039 0.898039
vn 0.921871 -6.125750 0.801924
v -0.005500 -0.006444 0.000855 0.898039 0.898039 0.898039
vn 1.623023 3.289927 3.665106
v 0.000924 0.002313 0.005318 0.898039 0.898039 0.898039
vn 2.740437 -2.463717 3.410084
v 0.001768 -0.001768 0.005300 0.898039 0.898039 0.898039
vn 1.398141 -5.899258 1.521942
v -0.005500 -0.006291 0.001635 0.898039 0.898039 0.898039
vn 0.453661 -6.250420 -0.402647
v -0.005500 -0.006459 -0.000732 0.898039 0.898039 0.898039
vn 0.508898 -6.229124 0.097261
v -0.005500 -0.006500 0.000061 0.898039 0.898039 0.898039
vn 0.482990 -1.078518 6.088759
v -0.009500 -0.003749 0.006954 0.898039 0.898039 0.898039
vn 0.480324 0.698089 6.175486
v -0.005964 0.000641 0.006472 0.898039 0.898039 0.898039
vn 0.337496 1.684332 5.981297
v -0.005702 0.001870 0.006225 0.898039 0.898039 0.898039
vn -0.145239 -0.473769 -6.080178
v -0.013225 -0.003256 -0.006960 0.898039 0.898039 0.898039
vn -3.150513 3.856968 -3.457785
v -0.021341 0.003702 -0.003221 0.898039 0.898039 0.898039
vn -4.170689 3.527667 -2.295717
v -0.022353 0.003460 -0.002363 0.898039 0.898039 0.898039
vn -6.055294 -0.097896 0.804450
v -0.024312 -0.003196 0.001028 0.898039 0.898039 0.898039
vn -3.105393 4.999457 1.368610
v -0.021341 0.004752 0.001222 0.898039 0.898039 0.898039
vn -4.259938 4.159487 0.469756
v -0.022418 0.004060 0.000528 0.898039 0.898039 0.898039
vn 2.075865 -3.518071 3.810178
v 0.000957 -0.002310 0.005300 0.898039 0.898039 0.898039
vn -1.203933 1.532345 -5.879598
v -0.018175 0.001432 -0.005836 0.898039 0.898039 0.898039
vn -2.031958 1.502652 -5.666843
v -0.020122 0.001307 -0.005303 0.898039 0.898039 0.898039
vn -5.284829 2.888528 -0.338300
v -0.023233 0.002948 -0.000229 0.898039 0.898039 0.898039
vn -2.138446 -5.206707 1.279776
v -0.022042 -0.006289 0.002054 0.898039 0.898039 0.898039
vn 1.872494 -5.087036 2.850684
v -0.003500 -0.004784 0.004400 0.898039 0.898039 0.898039
vn -5.248911 -2.324303 1.227151
v -0.024027 -0.004376 0.001636 0.898039 0.898039 0.898039
vn -3.888521 -3.516330 2.385507
v -0.023056 -0.005310 0.002691 0.898039 0.898039 0.898039
vn -5.269818 -2.489504 -0.579581
v -0.024155 -0.004454 -0.000755 0.898039 0.898039 0.898039
vn 2.574096 -4.860471 -1.662978
v 0.000938 -0.005328 -0.003723 0.898039 0.898039 0.898039
vn -0.415747 -2.847774 -5.416038
v -0.013931 -0.004492 -0.006561 0.898039 0.898039 0.898039
vn 1.317216 -3.970605 -4.640460
v 0.001500 -0.004076 -0.005063 0.898039 0.898039 0.898039
vn -0.731305 2.865021 5.439591
v -0.016634 0.002898 0.005520 0.898039 0.898039 0.898039
vn 0.144238 4.176788 4.593439
v -0.009179 0.004348 0.004846 0.898039 0.898039 0.898039
vn -0.461633 4.123940 4.600545
v -0.015189 0.004206 0.004769 0.898039 0.898039 0.898039
vn -4.208953 3.281475 2.797871
v -0.022349 0.003139 0.002679 0.898039 0.898039 0.898039
vn -1.330235 1.587815 5.841705
v -0.018543 0.001396 0.005753 0.898039 0.898039 0.898039
vn -0.160125 2.933672 5.482051
v -0.012041 0.002995 0.005750 0.898039 0.898039 0.898039
vn -0.212196 1.571217 6.026202
v -0.012535 0.001531 0.006294 0.898039 0.898039 0.898039
vn -0.231945 -0.482376 6.091438
v -0.012550 -0.003307 0.006982 0.898039 0.898039 0.898039
vn -3.043279 1.942432 4.877566
v -0.021229 0.001690 0.004709 0.898039 0.898039 0.898039
vn -2.774101 3.962757 3.530929
v -0.020890 0.003823 0.003521 0.898039 0.898039 0.898039
vn 0.494418 -2.059999 5.806641
v -0.009500 -0.004286 0.006816 0.898039 0.898039 0.898039
vn -3.814744 -0.850779 4.263702
v -0.022558 -0.003184 0.004609 0.898039 0.898039 0.898039
vn -1.904735 4.264223 -3.775779
v -0.019761 0.004236 -0.003746 0.898039 0.898039 0.898039
vn -0.453535 6.124948 0.806337
v -0.014450 0.006374 0.000768 0.898039 0.898039 0.898039
vn -0.310260 5.776487 2.250767
v -0.013535 0.006027 0.002311 0.898039 0.898039 0.898039
vn -0.969881 5.074437 -3.398836
v -0.017357 0.005038 -0.003482 0.898039 0.898039 0.898039
vn -0.561106 4.058448 -4.614933
v -0.015763 0.004206 -0.004743 0.898039 0.898039 0.898039
vn 0.109063 1.110314 -6.136598
v -0.002500 0.001500 -0.006325 0.898039 0.898039 0.898039
vn -0.092578 1.516451 -6.052999
v -0.010276 0.001609 -0.006309 0.898039 0.898039 0.898039
vn -1.001470 -3.806356 -4.728596
v -0.017178 -0.005005 -0.005742 0.898039 0.898039 0.898039
vn -1.713616 -1.367128 -5.200191
v -0.019698 -0.003385 -0.006177 0.898039 0.898039 0.898039
vn -0.451475 6.135436 -0.727812
v -0.014740 0.006362 -0.000764 0.898039 0.898039 0.898039
vn -1.693090 5.841242 0.558485
v -0.019337 0.005719 0.000705 0.898039 0.898039 0.898039
vn -1.393075 5.712642 -1.490799
v -0.018746 0.005741 -0.001452 0.898039 0.898039 0.898039
vn -2.831431 5.110121 -1.246262
v -0.020946 0.005021 -0.001205 0.898039 0.898039 0.898039
vn -6.120576 0.007789 -0.448637
v -0.024352 -0.003175 -0.000704 0.898039 0.898039 0.898039
vn -0.281302 -5.782437 1.954402
v -0.014594 -0.006365 0.004382 0.898039 0.898039 0.898039
vn 0.527166 -5.440698 2.443828
v -0.009670 -0.006252 0.005094 0.898039 0.898039 0.898039
vn 0.305501 -2.688313 -5.380592
v -0.009500 -0.005100 -0.006398 0.898039 0.898039 0.898039
vn -1.477685 -5.197950 -2.054137
v -0.021058 -0.006284 -0.002968 0.898039 0.898039 0.898039
vn 0.553620 3.419035 4.935864
v -0.005196 0.003000 0.005766 0.898039 0.898039 0.898039
vn -1.024952 4.954318 3.470292
v -0.017841 0.005018 0.003442 0.898039 0.898039 0.898039
vn -1.535472 5.487932 2.164036
v -0.018971 0.005494 0.002079 0.898039 0.898039 0.898039
vn -1.646258 3.352349 4.774722
v -0.019273 0.003348 0.004749 0.898039 0.898039 0.898039
vn -0.601503 1.539140 6.006586
v -0.016199 0.001501 0.006075 0.898039 0.898039 0.898039
vn -1.105013 -0.860296 5.757631
v -0.017970 -0.003236 0.006556 0.898039 0.898039 0.898039
vn -0.486317 -0.436214 6.079331
v -0.015135 -0.003200 0.006847 0.898039 0.898039 0.898039
vn 0.536647 -2.988318 5.363888
v -0.009500 -0.004792 0.006590 0.898039 0.898039 0.898039
vn -2.087701 1.524849 5.642177
v -0.020122 0.001293 0.005307 0.898039 0.898039 0.898039
vn 0.591807 -3.822206 4.775832
v -0.009500 -0.005251 0.006285 0.898039 0.898039 0.898039
vn 0.685678 -4.585329 3.995095
v -0.009500 -0.005653 0.005907 0.898039 0.898039 0.898039
vn -0.519236 -2.842526 5.430412
v -0.014543 -0.004464 0.006516 0.898039 0.898039 0.898039
vn -0.198641 5.070565 3.590073
v -0.012727 0.005314 0.003694 0.898039 0.898039 0.898039
vn -1.100453 2.892761 -5.304156
v -0.017716 0.002819 -0.005415 0.898039 0.898039 0.898039
vn -0.019868 2.319842 -5.825871
v -0.009000 0.002267 -0.006092 0.898039 0.898039 0.898039
vn -0.497269 5.761727 -2.260318
v -0.015189 0.005948 -0.002249 0.898039 0.898039 0.898039
vn -0.408876 1.621456 -5.991261
v -0.014582 0.001528 -0.006201 0.898039 0.898039 0.898039
vn -0.794912 -0.886430 -5.836656
v -0.016639 -0.003275 -0.006726 0.898039 0.898039 0.898039
vn -0.621108 -4.553462 4.088114
v -0.014968 -0.005611 0.005570 0.898039 0.898039 0.898039
vn -2.336297 -3.878777 3.924394
v -0.021389 -0.005289 0.004138 0.898039 0.898039 0.898039
vn -5.962122 1.382195 -0.801504
v -0.023720 0.001297 -0.000833 0.898039 0.898039 0.898039
vn 0.333545 -4.270996 -4.475200
v -0.009500 -0.005440 -0.006123 0.898039 0.898039 0.898039
vn -5.138855 -0.461092 2.763717
v -0.023764 -0.003165 0.003077 0.898039 0.898039 0.898039
vn -2.303010 -1.016987 5.137609
v -0.020715 -0.003204 0.005812 0.898039 0.898039 0.898039
vn 0.642971 5.722188 2.144633
v -0.009000 0.006078 0.002305 0.898039 0.898039 0.898039
vn 0.477064 5.125671 3.417971
v -0.009000 0.005349 0.003692 0.898039 0.898039 0.898039
vn -0.185717 3.003077 -5.425998
v -0.012465 0.003069 -0.005706 0.898039 0.898039 0.898039
vn 2.117119 3.799167 -2.710139
v 0.002009 0.003691 -0.005350 0.898039 0.898039 0.898039
vn -0.782665 -5.435601 2.105024
v -0.019627 -0.006389 0.003369 0.898039 0.898039 0.898039
vn -5.135983 1.834695 -2.487156
v -0.023146 0.001793 -0.002631 0.898039 0.898039 0.898039
vn -4.205890 1.685500 -4.074233
v -0.022311 0.001430 -0.003920 0.898039 0.898039 0.898039
vn -2.872605 2.134620 -4.787701
v -0.021118 0.001905 -0.004733 0.898039 0.898039 0.898039
vn -2.844403 -1.040574 -4.904828
v -0.021465 -0.003186 -0.005402 0.898039 0.898039 0.898039
vn -0.467450 -4.694188 -3.976098
v -0.014126 -0.005696 -0.005549 0.898039 0.898039 0.898039
vn -1.231594 -4.793243 -3.463730
v -0.019448 -0.006023 -0.004061 0.898039 0.898039 0.898039
vn -2.970049 -4.728062 -0.601414
v -0.022766 -0.006153 -0.000928 0.898039 0.898039 0.898039
vn -5.280492 2.401068 1.784806
v -0.023233 0.002357 0.001785 0.898039 0.898039 0.898039
vn -5.937325 1.361045 0.838704
v -0.023717 0.001355 0.000982 0.898039 0.898039 0.898039
vn -4.235727 1.762235 3.975930
v -0.022300 0.001485 0.003918 0.898039 0.898039 0.898039
vn -5.343690 1.362482 2.725322
v -0.023209 0.001088 0.002750 0.898039 0.898039 0.898039
vn -1.281552 -3.523964 4.875308
v -0.018399 -0.004471 0.005856 0.898039 0.898039 0.898039
vn 2.052483 4.345418 -2.507356
v 0.001157 0.004535 -0.004658 0.898039 0.898039 0.898039
vn 1.761005 4.769259 -1.549013
v 0.000500 0.005200 -0.003900 0.898039 0.898039 0.898039
vn 0.031708 5.818923 -2.181234
v -0.009380 0.006110 -0.002248 0.898039 0.898039 0.898039
vn -0.028700 4.176303 -4.621389
v -0.006005 0.004370 -0.004842 0.898039 0.898039 0.898039
vn -3.437137 -3.445329 -3.127183
v -0.022623 -0.005123 -0.003400 0.898039 0.898039 0.898039
vn -5.332667 -0.906917 -2.052355
v -0.024086 -0.003525 -0.002268 0.898039 0.898039 0.898039
vn -4.223902 -0.676240 -3.842819
v -0.022946 -0.003175 -0.004275 0.898039 0.898039 0.898039
vn 0.242790 -6.000026 -1.298756
v -0.009480 -0.006453 -0.004343 0.898039 0.898039 0.898039
vn 0.263020 -5.176192 -3.246413
v -0.009636 -0.006004 -0.005493 0.898039 0.898039 0.898039
vn 2.184542 -4.936331 -0.289208
v 0.000500 -0.005766 -0.003000 0.898039 0.898039 0.898039
vn -0.196016 5.060723 -3.562519
v -0.013197 0.005307 -0.003701 0.898039 0.898039 0.898039
vn 5.791144 -1.630958 0.188280
v 0.003000 -0.002300 -0.005000 0.898039 0.898039 0.898039
vn 4.843814 -3.713044 0.638703
v 0.001500 -0.004766 -0.003000 0.898039 0.898039 0.898039
vn 2.928969 -3.921558 -2.042467
v 0.001500 -0.004766 -0.004420 0.898039 0.898039 0.898039
vn 5.358248 2.169922 0.112651
v 0.003000 0.002700 -0.004850 0.898039 0.898039 0.898039
vn 2.789347 0.892153 -2.955591
v 0.003000 0.002517 -0.005999 0.898039 0.898039 0.898039
vn 2.963269 -0.276019 -3.136948
v 0.003000 -0.001500 -0.006325 0.898039 0.898039 0.898039
vn 2.634283 1.864826 -2.184818
v 0.003000 0.002700 -0.005913 0.898039 0.898039 0.898039
vn 3.079141 -1.600662 -2.429928
v 0.003004 -0.002281 -0.006093 0.898039 0.898039 0.898039
vn 5.080785 3.177454 0.612789
v 0.002700 0.003000 -0.003000 0.898039 0.898039 0.898039
vn 0.272728 6.162639 -0.651605
v -0.009019 0.006455 -0.000777 0.898039 0.898039 0.898039
vn 0.529208 6.081635 0.820144
v -0.009011 0.006454 0.000788 0.898039 0.898039 0.898039
vn 2.582400 5.162377 0.633433
v 0.000500 0.005200 -0.003000 0.898039 0.898039 0.898039
vn -0.482255 -6.233474 -0.036830
v -0.020671 -0.006500 0.000179 0.898039 0.898039 0.898039
vn -0.261277 -5.825129 -1.633017
v -0.014885 -0.006466 -0.004118 0.898039 0.898039 0.898039
vn 0.341444 -6.177155 0.702388
v -0.009500 -0.006500 0.003700 0.898039 0.898039 0.898039
# 129 vertices, 0 vertices normals

f 5//5 123//123 126//126
f 118//118 4//4 115//115
f 13//13 39//39 2//2
f 7//7 5//5 126//126
f 126//126 87//87 7//7
f 50//50 120//120 15//15
f 117//117 32//32 122//122
f 21//21 26//26 113//113
f 113//113 8//8 21//21
f 113//113 116//116 8//8
f 88//88 7//7 87//87
f 39//39 40//40 2//2
f 40//40 12//12 2//2
f 1//1 4//4 2//2
f 2//2 12//12 1//1
f 1//1 12//12 8//8
f 4//4 1//1 115//115
f 1//1 116//116 115//115
f 8//8 116//116 1//1
f 2//2 4//4 13//13
f 3//3 5//5 13//13
f 3//3 13//13 4//4
f 3//3 123//123 5//5
f 3//3 118//118 123//123
f 3//3 4//4 118//118
f 14//14 13//13 5//5
f 14//14 5//5 7//7
f 14//14 7//7 63//63
f 120//120 50//50 119//119
f 73//73 26//26 21//21
f 9//9 60//60 6//6
f 113//113 9//9 6//6
f 9//9 113//113 26//26
f 60//60 129//129 6//6
f 25//25 82//82 28//28
f 17//17 57//57 16//16
f 11//11 6//6 129//129
f 11//11 113//113 6//6
f 30//30 117//117 116//116
f 113//113 30//30 116//116
f 63//63 88//88 34//34
f 7//7 88//88 63//63
f 43//43 70//70 21//21
f 43//43 21//21 8//8
f 43//43 8//8 12//12
f 71//71 86//86 37//37
f 71//71 37//37 66//66
f 41//41 44//44 86//86
f 76//76 79//79 22//22
f 51//51 50//50 15//15
f 51//51 119//119 50//50
f 119//119 51//51 77//77
f 85//85 18//18 27//27
f 60//60 9//9 26//26
f 17//17 20//20 57//57
f 20//20 17//17 24//24
f 24//24 100//100 99//99
f 16//16 45//45 94//94
f 16//16 94//94 17//17
f 17//17 94//94 93//93
f 17//17 93//93 92//92
f 111//111 113//113 10//10
f 10//10 11//11 111//111
f 11//11 10//10 113//113
f 14//14 38//38 39//39
f 42//42 65//65 19//19
f 19//19 36//36 42//42
f 37//37 68//68 67//67
f 33//33 39//39 38//38
f 35//35 64//64 66//66
f 40//40 43//43 12//12
f 23//23 94//94 76//76
f 22//22 53//53 23//23
f 23//23 76//76 22//22
f 125//125 87//87 126//126
f 90//90 104//104 105//105
f 90//90 126//126 123//123
f 90//90 105//105 126//126
f 14//14 39//39 13//13
f 79//79 51//51 15//15
f 15//15 31//31 80//80
f 15//15 80//80 79//79
f 95//95 94//94 23//23
f 78//78 56//56 54//54
f 45//45 57//57 56//56
f 45//45 16//16 57//57
f 55//55 46//46 54//54
f 46//46 55//55 65//65
f 55//55 19//19 65//65
f 100//100 18//18 85//85
f 18//18 100//100 58//58
f 91//91 25//25 127//127
f 59//59 91//91 129//129
f 59//59 129//129 60//60
f 91//91 82//82 25//25
f 82//82 86//86 44//44
f 92//92 83//83 24//24
f 92//92 24//24 17//17
f 29//29 18//18 58//58
f 29//29 27//27 18//18
f 27//27 29//29 98//98
f 108//108 98//98 29//29
f 61//61 122//122 32//32
f 120//120 122//122 61//61
f 61//61 15//15 120//120
f 31//31 15//15 61//61
f 52//52 97//97 53//53
f 75//75 64//64 35//35
f 75//75 47//47 64//64
f 47//47 65//65 64//64
f 75//75 34//34 88//88
f 19//19 20//20 36//36
f 20//20 24//24 99//99
f 57//57 20//20 19//19
f 19//19 55//55 57//57
f 42//42 36//36 101//101
f 99//99 36//36 20//20
f 33//33 37//37 67//67
f 33//33 35//35 66//66
f 67//67 39//39 33//33
f 86//86 71//71 41//41
f 44//44 28//28 82//82
f 72//72 70//70 74//74
f 72//72 21//21 70//70
f 72//72 73//73 21//21
f 37//37 86//86 68//68
f 45//45 76//76 94//94
f 49//49 45//45 48//48
f 45//45 49//49 76//76
f 105//105 106//106 124//124
f 80//80 31//31 52//52
f 52//52 53//53 80//80
f 53//53 95//95 23//23
f 56//56 78//78 48//48
f 114//114 48//48 78//78
f 47//47 46//46 65//65
f 83//83 92//92 109//109
f 73//73 60//60 26//26
f 82//82 91//91 81//81
f 103//103 81//81 74//74
f 27//27 98//98 28//28
f 98//98 25//25 28//28
f 30//30 112//112 117//117
f 112//112 30//30 113//113
f 84//84 61//61 32//32
f 84//84 32//32 117//117
f 84//84 117//117 112//112
f 98//98 127//127 25//25
f 62//62 127//127 98//98
f 34//34 38//38 63//63
f 35//35 33//33 38//38
f 34//34 75//75 35//35
f 35//35 38//38 34//34
f 101//101 44//44 41//41
f 99//99 101//101 36//36
f 66//66 37//37 33//33
f 71//71 66//66 41//41
f 42//42 101//101 41//41
f 41//41 66//66 42//42
f 64//64 65//65 42//42
f 42//42 66//66 64//64
f 68//68 69//69 67//67
f 40//40 74//74 43//43
f 70//70 43//43 74//74
f 44//44 85//85 28//28
f 101//101 85//85 44//44
f 45//45 56//56 48//48
f 54//54 46//46 124//124
f 124//124 106//106 54//54
f 49//49 48//48 114//114
f 51//51 79//79 89//89
f 89//89 107//107 90//90
f 78//78 54//54 106//106
f 53//53 22//22 80//80
f 56//56 55//55 54//54
f 57//57 55//55 56//56
f 100//100 83//83 58//58
f 24//24 83//83 100//100
f 91//91 127//127 129//129
f 59//59 60//60 81//81
f 81//81 60//60 73//73
f 109//109 108//108 29//29
f 62//62 98//98 108//108
f 31//31 61//61 84//84
f 128//128 62//62 97//97
f 108//108 53//53 97//97
f 62//62 108//108 97//97
f 62//62 128//128 127//127
f 63//63 38//38 14//14
f 39//39 69//69 40//40
f 69//69 39//39 67//67
f 74//74 69//69 68//68
f 69//69 74//74 40//40
f 86//86 82//82 103//103
f 82//82 81//81 103//103
f 85//85 27//27 28//28
f 73//73 72//72 81//81
f 72//72 74//74 81//81
f 103//103 74//74 68//68
f 125//125 124//124 46//46
f 47//47 125//125 46//46
f 89//89 79//79 76//76
f 49//49 89//89 76//76
f 89//89 49//49 107//107
f 89//89 77//77 51//51
f 119//119 90//90 121//121
f 90//90 119//119 89//89
f 77//77 89//89 119//119
f 114//114 107//107 49//49
f 78//78 106//106 114//114
f 80//80 22//22 79//79
f 58//58 109//109 29//29
f 58//58 83//83 109//109
f 96//96 112//112 128//128
f 96//96 84//84 112//112
f 96//96 31//31 84//84
f 52//52 96//96 97//97
f 102//102 85//85 101//101
f 103//103 68//68 86//86
f 87//87 125//125 47//47
f 47//47 88//88 87//87
f 47//47 75//75 88//88
f 104//104 90//90 107//107
f 104//104 107//107 105//105
f 59//59 81//81 91//91
f 92//92 110//110 109//109
f 93//93 110//110 92//92
f 110//110 94//94 95//95
f 110//110 93//93 94//94
f 95//95 53//53 108//108
f 108//108 110//110 95//95
f 31//31 96//96 52//52
f 128//128 97//97 96//96
f 102//102 99//99 100//100
f 102//102 100//100 85//85
f 101//101 99//99 102//102
f 106//106 105//105 114//114
f 108//108 109//109 110//110
f 111//111 128//128 112//112
f 111//111 112//112 113//113
f 114//114 105//105 107//107
f 122//122 116//116 117//117
f 122//122 115//115 116//116
f 119//119 118//118 115//115
f 119//119 121//121 118//118
f 119//119 115//115 122//122
f 119//119 122//122 120//120
f 90//90 118//118 121//121
f 90//90 123//123 118//118
f 124//124 125//125 126//126
f 124//124 126//126 105//105
f 129//129 127//127 11//11
f 127//127 128//128 11//11
f 11//11 128//128 111//111
# 254 faces, 0 coords texture

# End of File
