####
#
# OBJ File Generated by Meshlab
#
####
# Object col_LeftThumb2.obj
#
# Vertices: 29
# Faces: 54
#
####
vn 1.404035 -4.765825 -1.070720
v 0.001115 -0.005140 -0.004006
vn 2.548259 -2.947066 -1.649188
v 0.002526 -0.004271 -0.004908
vn 0.591496 5.790781 1.332645
v -0.005612 0.006267 0.001862
vn 1.166177 4.745255 3.203327
v -0.003755 0.004945 0.004269
vn -1.937495 3.247168 2.223964
v -0.023839 0.005539 0.003599
vn -0.642165 -3.816337 -4.688426
v -0.016478 -0.004252 -0.004966
vn -2.315681 -2.868054 -1.988554
v -0.025073 -0.004449 -0.002562
vn 0.548838 2.860247 5.292174
v -0.003958 0.003434 0.005570
vn -3.311452 0.674300 2.330453
v -0.026784 0.001182 0.003979
vn -3.721701 0.065956 -2.154328
v -0.027005 -0.000011 -0.002545
vn -2.093581 3.003357 -2.006473
v -0.023839 0.005787 -0.002966
vn 1.120951 -3.250221 3.893401
v -0.001998 -0.003301 0.005614
vn -1.035225 2.658185 -4.869468
v -0.019720 0.004295 -0.004940
vn 0.373280 -5.277043 2.134779
v -0.006977 -0.005477 0.003501
vn -0.422171 -5.429419 -1.990702
v -0.016500 -0.005500 -0.003464
vn -0.250082 -5.308475 2.137020
v -0.016500 -0.005500 0.003464
vn -2.072681 -2.331567 1.945634
v -0.025347 -0.004412 0.004008
vn 1.824309 4.838476 -0.604107
v 0.000000 0.005766 -0.003000
vn -0.820822 -1.374253 -5.639859
v -0.016147 -0.001817 -0.006381
vn 2.276955 3.737185 -1.868722
v 0.001112 0.004902 -0.004355
vn 2.326470 1.041321 -2.170080
v 0.003132 0.002170 -0.006295
vn 2.655257 -1.201821 -2.507364
v 0.002994 -0.002838 -0.005836
vn 2.670774 -1.304275 2.368397
v 0.002392 -0.001675 0.005276
vn 2.709752 1.709668 2.775584
v 0.001861 0.001796 0.005347
vn -0.487379 1.903785 5.456185
v -0.016951 0.002808 0.006033
vn 0.223986 0.172244 6.033148
v -0.006581 0.000312 0.006580
vn -0.510393 -2.108353 5.297822
v -0.017316 -0.002966 0.005950
vn -0.146211 6.046555 -0.356307
v -0.017188 0.006552 -0.000672
vn -0.803640 1.172381 -5.769746
v -0.016515 0.001758 -0.006310
# 29 vertices, 0 vertices normals

f 18//18 3//3 4//4
f 10//10 13//13 29//29
f 10//10 29//29 19//19
f 23//23 24//24 26//26
f 3//3 28//28 5//5
f 7//7 19//19 6//6
f 7//7 10//10 19//19
f 4//4 24//24 18//18
f 18//18 28//28 3//3
f 5//5 11//11 9//9
f 13//13 10//10 11//11
f 19//19 21//21 22//22
f 20//20 11//11 18//18
f 11//11 20//20 13//13
f 16//16 27//27 17//17
f 1//1 12//12 14//14
f 2//2 22//22 23//23
f 6//6 15//15 7//7
f 1//1 15//15 6//6
f 19//19 22//22 6//6
f 23//23 1//1 2//2
f 12//12 1//1 23//23
f 25//25 4//4 5//5
f 24//24 4//4 8//8
f 24//24 23//23 21//21
f 11//11 28//28 18//18
f 16//16 14//14 27//27
f 2//2 6//6 22//22
f 1//1 6//6 2//2
f 14//14 15//15 1//1
f 9//9 17//17 27//27
f 7//7 17//17 10//10
f 3//3 5//5 4//4
f 8//8 4//4 25//25
f 20//20 24//24 21//21
f 5//5 28//28 11//11
f 5//5 9//9 25//25
f 25//25 9//9 27//27
f 27//27 14//14 12//12
f 9//9 10//10 17//17
f 13//13 20//20 21//21
f 29//29 13//13 21//21
f 27//27 12//12 26//26
f 11//11 10//10 9//9
f 26//26 12//12 23//23
f 8//8 26//26 24//24
f 26//26 8//8 25//25
f 29//29 21//21 19//19
f 7//7 15//15 17//17
f 17//17 15//15 16//16
f 14//14 16//16 15//15
f 22//22 21//21 23//23
f 24//24 20//20 18//18
f 27//27 26//26 25//25
# 54 faces, 0 coords texture

# End of File
